<svg xmlns="http://www.w3.org/2000/svg" width="797.6390380859375" height="1114.22900390625" viewBox="-336.75860595703125 -632.9993286132812 797.6390380859375 1114.22900390625"><title>Neo4j Graph Visualization</title><desc>Created using Neo4j (http://www.neo4j.com/)</desc><g class="layer relationships"><g class="relationship" transform="translate(225.53029821090817 72.25253701580893) rotate(281.31222655770284)"><path class="outline" fill="#A5ABB6" stroke="none" d="M 25 0.5 L 72.50568213945864 0.5 L 72.50568213945864 -0.5 L 25 -0.5 Z M 131.69318213945866 0.5 L 179.19886427891728 0.5 L 179.19886427891728 3.5 L 186.19886427891728 0 L 179.19886427891728 -3.5 L 179.19886427891728 -0.5 L 131.69318213945866 -0.5 Z"/><text text-anchor="middle" pointer-events="none" font-size="8px" fill="#000000" x="102.09943213945864" y="3" font-family="sans-serif">DESTINATION</text></g><g class="relationship" transform="translate(430.8761770638643 -181.93221300395155) rotate(523.9721854060788)"><path class="outline" fill="#A5ABB6" stroke="none" d="M 25 0.5 L 64.55116814387338 0.5 L 64.55116814387338 -0.5 L 25 -0.5 Z M 98.99648064387338 0.5 L 138.54764878774677 0.5 L 138.54764878774677 3.5 L 145.54764878774677 0 L 138.54764878774677 -3.5 L 138.54764878774677 -0.5 L 98.99648064387338 -0.5 Z"/><text text-anchor="middle" pointer-events="none" font-size="8px" fill="#000000" x="81.77382439387338" y="3" transform="rotate(180 81.77382439387338 0)" font-family="sans-serif">ORIGIN</text></g><g class="relationship" transform="translate(430.8761770638643 -181.93221300395155) rotate(209.02007385086614)"><path class="outline" fill="#A5ABB6" stroke="none" d="M 25 0.5 L 25.60540406498128 0.5 L 25.60540406498128 -0.5 L 25 -0.5 Z M 63.16399781498128 0.5 L 63.76940187996256 0.5 L 63.76940187996256 3.5 L 70.76940187996256 0 L 63.76940187996256 -3.5 L 63.76940187996256 -0.5 L 63.16399781498128 -0.5 Z"/><text text-anchor="middle" pointer-events="none" font-size="8px" fill="#000000" x="44.38470093998128" y="3" transform="rotate(180 44.38470093998128 0)" font-family="sans-serif">DESTI…</text></g><g class="relationship" transform="translate(215.59697654925935 -347.5310143333931) rotate(402.169406782301)"><path class="outline" fill="#A5ABB6" stroke="none" d="M 25 0.5 L 55.64087276922122 0.5 L 55.64087276922122 -0.5 L 25 -0.5 Z M 114.82837276922122 0.5 L 145.46924553844244 0.5 L 145.46924553844244 3.5 L 152.46924553844244 0 L 145.46924553844244 -3.5 L 145.46924553844244 -0.5 L 114.82837276922122 -0.5 Z"/><text text-anchor="middle" pointer-events="none" font-size="8px" fill="#000000" x="85.23462276922122" y="3" font-family="sans-serif">DESTINATION</text></g><g class="relationship" transform="translate(215.59697654925935 -347.5310143333931) rotate(197.80388832584612)"><path class="outline" fill="#A5ABB6" stroke="none" d="M 25 0.5 L 71.87439468806778 0.5 L 71.87439468806778 -0.5 L 25 -0.5 Z M 106.31970718806778 0.5 L 153.19410187613556 0.5 L 153.19410187613556 3.5 L 160.19410187613556 0 L 153.19410187613556 -3.5 L 153.19410187613556 -0.5 L 106.31970718806778 -0.5 Z"/><text text-anchor="middle" pointer-events="none" font-size="8px" fill="#000000" x="89.09705093806778" y="3" transform="rotate(180 89.09705093806778 0)" font-family="sans-serif">ORIGIN</text></g><g class="relationship" transform="translate(173.0170537609415 -488.25897697759456) rotate(507.8370341011109)"><path class="outline" fill="#A5ABB6" stroke="none" d="M 25 0.5 L 58.27265981440739 0.5 L 58.27265981440739 -0.5 L 25 -0.5 Z M 92.71797231440739 0.5 L 125.99063212881478 0.5 L 125.99063212881478 3.5 L 132.99063212881478 0 L 125.99063212881478 -3.5 L 125.99063212881478 -0.5 L 92.71797231440739 -0.5 Z"/><text text-anchor="middle" pointer-events="none" font-size="8px" fill="#000000" x="75.49531606440739" y="3" transform="rotate(180 75.49531606440739 0)" font-family="sans-serif">ORIGIN</text></g><g class="relationship" transform="translate(173.0170537609415 -488.25897697759456) rotate(246.019335554255)"><path class="outline" fill="#A5ABB6" stroke="none" d="M 25 0.5 L 30.243530005090236 0.5 L 30.243530005090236 -0.5 L 25 -0.5 Z M 89.43103000509024 0.5 L 94.67456001018047 0.5 L 94.67456001018047 3.5 L 101.67456001018047 0 L 94.67456001018047 -3.5 L 94.67456001018047 -0.5 L 89.43103000509024 -0.5 Z"/><text text-anchor="middle" pointer-events="none" font-size="8px" fill="#000000" x="59.837280005090236" y="3" transform="rotate(180 59.837280005090236 0)" font-family="sans-serif">DESTINATION</text></g><g class="relationship" transform="translate(56.709423644348504 -515.5905197389816) rotate(458.89355813993467)"><path class="outline" fill="#A5ABB6" stroke="none" d="M 25 0.5 L 35.67265612138292 0.5 L 35.67265612138292 -0.5 L 25 -0.5 Z M 70.11796862138291 0.5 L 80.79062474276584 0.5 L 80.79062474276584 3.5 L 87.79062474276584 0 L 80.79062474276584 -3.5 L 80.79062474276584 -0.5 L 70.11796862138291 -0.5 Z"/><text text-anchor="middle" pointer-events="none" font-size="8px" fill="#000000" x="52.89531237138292" y="3" transform="rotate(180 52.89531237138292 0)" font-family="sans-serif">ORIGIN</text></g><g class="relationship" transform="translate(56.709423644348504 -515.5905197389816) rotate(306.24978140655327)"><path class="outline" fill="#A5ABB6" stroke="none" d="M 25 0.5 L 26.977845892902913 0.5 L 26.977845892902913 -0.5 L 25 -0.5 Z M 75.6497208929029 0.5 L 77.62756678580583 0.5 L 77.62756678580583 3.5 L 84.62756678580583 0 L 77.62756678580583 -3.5 L 77.62756678580583 -0.5 L 75.6497208929029 -0.5 Z"/><text text-anchor="middle" pointer-events="none" font-size="8px" fill="#000000" x="51.31378339290291" y="3" font-family="sans-serif">DESTINA…</text></g><g class="relationship" transform="translate(113.8705924779 -497.21145616532687) rotate(488.71762187506357)"><path class="outline" fill="#A5ABB6" stroke="none" d="M 25 0.5 L 38.910109431122486 0.5 L 38.910109431122486 -0.5 L 25 -0.5 Z M 73.35542193112249 0.5 L 87.26553136224497 0.5 L 87.26553136224497 3.5 L 94.26553136224497 0 L 87.26553136224497 -3.5 L 87.26553136224497 -0.5 L 73.35542193112249 -0.5 Z"/><text text-anchor="middle" pointer-events="none" font-size="8px" fill="#000000" x="56.132765681122486" y="3" transform="rotate(180 56.132765681122486 0)" font-family="sans-serif">ORIGIN</text></g><g class="relationship" transform="translate(113.8705924779 -497.21145616532687) rotate(274.10410064704007)"><path class="outline" fill="#A5ABB6" stroke="none" d="M 25 0.5 L 25.6952698389034 0.5 L 25.6952698389034 -0.5 L 25 -0.5 Z M 74.3671448389034 0.5 L 75.0624146778068 0.5 L 75.0624146778068 3.5 L 82.0624146778068 0 L 75.0624146778068 -3.5 L 75.0624146778068 -0.5 L 74.3671448389034 -0.5 Z"/><text text-anchor="middle" pointer-events="none" font-size="8px" fill="#000000" x="50.0312073389034" y="3" font-family="sans-serif">DESTINA…</text></g><g class="relationship" transform="translate(-12.338489000219713 -514.834784747553) rotate(424.99992727399353)"><path class="outline" fill="#A5ABB6" stroke="none" d="M 25 0.5 L 40.33767214898863 0.5 L 40.33767214898863 -0.5 L 25 -0.5 Z M 74.78298464898863 0.5 L 90.12065679797726 0.5 L 90.12065679797726 3.5 L 97.12065679797726 0 L 90.12065679797726 -3.5 L 90.12065679797726 -0.5 L 74.78298464898863 -0.5 Z"/><text text-anchor="middle" pointer-events="none" font-size="8px" fill="#000000" x="57.56032839898863" y="3" font-family="sans-serif">ORIGIN</text></g><g class="relationship" transform="translate(-12.338489000219713 -514.834784747553) rotate(326.3345523634731)"><path class="outline" fill="#A5ABB6" stroke="none" d="M 25 0.5 L 47.32992632864472 0.5 L 47.32992632864472 -0.5 L 25 -0.5 Z M 106.51742632864472 0.5 L 128.84735265728943 0.5 L 128.84735265728943 3.5 L 135.84735265728943 0 L 128.84735265728943 -3.5 L 128.84735265728943 -0.5 L 106.51742632864472 -0.5 Z"/><text text-anchor="middle" pointer-events="none" font-size="8px" fill="#000000" x="76.92367632864472" y="3" font-family="sans-serif">DESTINATION</text></g><g class="relationship" transform="translate(21.49044923063681 -564.0547541086991) rotate(443.6544678489947)"><path class="outline" fill="#A5ABB6" stroke="none" d="M 25 0.5 L 59.71958119477091 0.5 L 59.71958119477091 -0.5 L 25 -0.5 Z M 94.16489369477091 0.5 L 128.88447488954182 0.5 L 128.88447488954182 3.5 L 135.88447488954182 0 L 128.88447488954182 -3.5 L 128.88447488954182 -0.5 L 94.16489369477091 -0.5 Z"/><text text-anchor="middle" pointer-events="none" font-size="8px" fill="#000000" x="76.94223744477091" y="3" font-family="sans-serif">ORIGIN</text></g><g class="relationship" transform="translate(21.49044923063681 -564.0547541086991) rotate(338.23435330158645)"><path class="outline" fill="#A5ABB6" stroke="none" d="M 25 0.5 L 26.025147028024897 0.5 L 26.025147028024897 -0.5 L 25 -0.5 Z M 74.69702202802489 0.5 L 75.7221690560498 0.5 L 75.7221690560498 3.5 L 82.7221690560498 0 L 75.7221690560498 -3.5 L 75.7221690560498 -0.5 L 74.69702202802489 -0.5 Z"/><text text-anchor="middle" pointer-events="none" font-size="8px" fill="#000000" x="50.3610845280249" y="3" font-family="sans-serif">DESTINA…</text></g><g class="relationship" transform="translate(240.78005843771953 146.26983999081713) rotate(310.3210150872211)"><path class="outline" fill="#A5ABB6" stroke="none" d="M 25 0.5 L 41.56573409934384 0.5 L 41.56573409934384 -0.5 L 25 -0.5 Z M 100.75323409934384 0.5 L 117.31896819868768 0.5 L 117.31896819868768 3.5 L 124.31896819868768 0 L 117.31896819868768 -3.5 L 117.31896819868768 -0.5 L 100.75323409934384 -0.5 Z"/><text text-anchor="middle" pointer-events="none" font-size="8px" fill="#000000" x="71.15948409934384" y="3" font-family="sans-serif">DESTINATION</text></g><g class="relationship" transform="translate(431.8803613677187 -89.12775938060261) rotate(487.8573491156566)"><path class="outline" fill="#A5ABB6" stroke="none" d="M 25 0.5 L 56.2538153102944 0.5 L 56.2538153102944 -0.5 L 25 -0.5 Z M 90.6991278102944 0.5 L 121.9529431205888 0.5 L 121.9529431205888 3.5 L 128.9529431205888 0 L 121.9529431205888 -3.5 L 121.9529431205888 -0.5 L 90.6991278102944 -0.5 Z"/><text text-anchor="middle" pointer-events="none" font-size="8px" fill="#000000" x="73.4764715602944" y="3" transform="rotate(180 73.4764715602944 0)" font-family="sans-serif">ORIGIN</text></g><g class="relationship" transform="translate(431.8803613677187 -89.12775938060261) rotate(238.6771628308976)"><path class="outline" fill="#A5ABB6" stroke="none" d="M 25 0.5 L 48.41836525266254 0.5 L 48.41836525266254 -0.5 L 25 -0.5 Z M 107.60586525266254 0.5 L 131.02423050532508 0.5 L 131.02423050532508 3.5 L 138.02423050532508 0 L 131.02423050532508 -3.5 L 131.02423050532508 -0.5 L 107.60586525266254 -0.5 Z"/><text text-anchor="middle" pointer-events="none" font-size="8px" fill="#000000" x="78.01211525266254" y="3" transform="rotate(180 78.01211525266254 0)" font-family="sans-serif">DESTINATION</text></g><g class="relationship" transform="translate(300.5660851906198 142.5866417599746) rotate(288.48781729575984)"><path class="outline" fill="#A5ABB6" stroke="none" d="M 25 0.5 L 26.98472567723517 0.5 L 26.98472567723517 -0.5 L 25 -0.5 Z M 82.17222567723516 0.5 L 84.15695135447034 0.5 L 84.15695135447034 3.5 L 91.15695135447034 0 L 84.15695135447034 -3.5 L 84.15695135447034 -0.5 L 82.17222567723516 -0.5 Z"/><text text-anchor="middle" pointer-events="none" font-size="8px" fill="#000000" x="54.57847567723517" y="3" font-family="sans-serif">DESTINATI…</text></g><g class="relationship" transform="translate(333.989459719582 192.26540178323398) rotate(271.2222691015172)"><path class="outline" fill="#A5ABB6" stroke="none" d="M 25 0.5 L 46.844928129626524 0.5 L 46.844928129626524 -0.5 L 25 -0.5 Z M 106.03242812962652 0.5 L 127.87735625925305 0.5 L 127.87735625925305 3.5 L 134.87735625925305 0 L 127.87735625925305 -3.5 L 127.87735625925305 -0.5 L 106.03242812962652 -0.5 Z"/><text text-anchor="middle" pointer-events="none" font-size="8px" fill="#000000" x="76.43867812962652" y="3" font-family="sans-serif">DESTINATION</text></g><g class="relationship" transform="translate(274.2640779093641 196.00081006206685) rotate(291.10513735623135)"><path class="outline" fill="#A5ABB6" stroke="none" d="M 25 0.5 L 54.57516468521668 0.5 L 54.57516468521668 -0.5 L 25 -0.5 Z M 113.76266468521668 0.5 L 143.33782937043335 0.5 L 143.33782937043335 3.5 L 150.33782937043335 0 L 143.33782937043335 -3.5 L 143.33782937043335 -0.5 L 113.76266468521668 -0.5 Z"/><text text-anchor="middle" pointer-events="none" font-size="8px" fill="#000000" x="84.16891468521668" y="3" font-family="sans-serif">DESTINATION</text></g><g class="relationship" transform="translate(77.47249290812384 -130.83022377695647) rotate(358.7867170623804)"><path class="outline" fill="#A5ABB6" stroke="none" d="M 25 0.5 L 61.67029711679771 0.5 L 61.67029711679771 -0.5 L 25 -0.5 Z M 120.85779711679771 0.5 L 157.52809423359543 0.5 L 157.52809423359543 3.5 L 164.52809423359543 0 L 157.52809423359543 -3.5 L 157.52809423359543 -0.5 L 120.85779711679771 -0.5 Z"/><text text-anchor="middle" pointer-events="none" font-size="8px" fill="#000000" x="91.26404711679771" y="3" font-family="sans-serif">DESTINATION</text></g><g class="relationship" transform="translate(77.47249290812384 -130.83022377695647) rotate(534.1616696031247)"><path class="outline" fill="#A5ABB6" stroke="none" d="M 25 0.5 L 58.31930503207795 0.5 L 58.31930503207795 -0.5 L 25 -0.5 Z M 92.76461753207795 0.5 L 126.0839225641559 0.5 L 126.0839225641559 3.5 L 133.0839225641559 0 L 126.0839225641559 -3.5 L 126.0839225641559 -0.5 L 92.76461753207795 -0.5 Z"/><text text-anchor="middle" pointer-events="none" font-size="8px" fill="#000000" x="75.54196128207795" y="3" transform="rotate(180 75.54196128207795 0)" font-family="sans-serif">ORIGIN</text></g><g class="relationship" transform="translate(-48.25962763333469 -296.66660155614295) rotate(459.83341957749474)"><path class="outline" fill="#A5ABB6" stroke="none" d="M 25 0.5 L 59.22097912431002 0.5 L 59.22097912431002 -0.5 L 25 -0.5 Z M 118.40847912431002 0.5 L 152.62945824862004 0.5 L 152.62945824862004 3.5 L 159.62945824862004 0 L 152.62945824862004 -3.5 L 152.62945824862004 -0.5 L 118.40847912431002 -0.5 Z"/><text text-anchor="middle" pointer-events="none" font-size="8px" fill="#000000" x="88.81472912431002" y="3" transform="rotate(180 88.81472912431002 0)" font-family="sans-serif">DESTINATION</text></g><g class="relationship" transform="translate(-48.25962763333469 -296.66660155614295) rotate(309.15692754389806)"><path class="outline" fill="#A5ABB6" stroke="none" d="M 25 0.5 L 48.587800944506085 0.5 L 48.587800944506085 -0.5 L 25 -0.5 Z M 83.03311344450609 0.5 L 106.62091438901217 0.5 L 106.62091438901217 3.5 L 113.62091438901217 0 L 106.62091438901217 -3.5 L 106.62091438901217 -0.5 L 83.03311344450609 -0.5 Z"/><text text-anchor="middle" pointer-events="none" font-size="8px" fill="#000000" x="65.81045719450609" y="3" font-family="sans-serif">ORIGIN</text></g><g class="relationship" transform="translate(-106.51083604180626 -284.00617227833686) rotate(441.0291270633282)"><path class="outline" fill="#A5ABB6" stroke="none" d="M 25 0.5 L 52.582532795867394 0.5 L 52.582532795867394 -0.5 L 25 -0.5 Z M 111.7700327958674 0.5 L 139.3525655917348 0.5 L 139.3525655917348 3.5 L 146.3525655917348 0 L 139.3525655917348 -3.5 L 139.3525655917348 -0.5 L 111.7700327958674 -0.5 Z"/><text text-anchor="middle" pointer-events="none" font-size="8px" fill="#000000" x="82.1762827958674" y="3" font-family="sans-serif">DESTINATION</text></g><g class="relationship" transform="translate(-106.51083604180626 -284.00617227833686) rotate(320.5057053370124)"><path class="outline" fill="#A5ABB6" stroke="none" d="M 25 0.5 L 73.73450951249443 0.5 L 73.73450951249443 -0.5 L 25 -0.5 Z M 108.17982201249443 0.5 L 156.91433152498885 0.5 L 156.91433152498885 3.5 L 163.91433152498885 0 L 156.91433152498885 -3.5 L 156.91433152498885 -0.5 L 108.17982201249443 -0.5 Z"/><text text-anchor="middle" pointer-events="none" font-size="8px" fill="#000000" x="90.95716576249443" y="3" font-family="sans-serif">ORIGIN</text></g><g class="relationship" transform="translate(87.22960998480296 -189.76600331495342) rotate(376.9924667650217)"><path class="outline" fill="#A5ABB6" stroke="none" d="M 25 0.5 L 60.872771315440616 0.5 L 60.872771315440616 -0.5 L 25 -0.5 Z M 120.06027131544062 0.5 L 155.93304263088123 0.5 L 155.93304263088123 3.5 L 162.93304263088123 0 L 155.93304263088123 -3.5 L 155.93304263088123 -0.5 L 120.06027131544062 -0.5 Z"/><text text-anchor="middle" pointer-events="none" font-size="8px" fill="#000000" x="90.46652131544062" y="3" font-family="sans-serif">DESTINATION</text></g><g class="relationship" transform="translate(87.22960998480296 -189.76600331495342) rotate(515.8130910145968)"><path class="outline" fill="#A5ABB6" stroke="none" d="M 25 0.5 L 70.82443950394743 0.5 L 70.82443950394743 -0.5 L 25 -0.5 Z M 105.26975200394743 0.5 L 151.09419150789486 0.5 L 151.09419150789486 3.5 L 158.09419150789486 0 L 151.09419150789486 -3.5 L 151.09419150789486 -0.5 L 105.26975200394743 -0.5 Z"/><text text-anchor="middle" pointer-events="none" font-size="8px" fill="#000000" x="88.04709575394743" y="3" transform="rotate(180 88.04709575394743 0)" font-family="sans-serif">ORIGIN</text></g><g class="relationship" transform="translate(-5.062400460059614 -255.4507469480459) rotate(477.97361901553126)"><path class="outline" fill="#A5ABB6" stroke="none" d="M 25 0.5 L 46.563689030895475 0.5 L 46.563689030895475 -0.5 L 25 -0.5 Z M 105.75118903089547 0.5 L 127.31487806179095 0.5 L 127.31487806179095 3.5 L 134.31487806179095 0 L 127.31487806179095 -3.5 L 127.31487806179095 -0.5 L 105.75118903089547 -0.5 Z"/><text text-anchor="middle" pointer-events="none" font-size="8px" fill="#000000" x="76.15743903089547" y="3" transform="rotate(180 76.15743903089547 0)" font-family="sans-serif">DESTINATION</text></g><g class="relationship" transform="translate(-5.062400460059614 -255.4507469480459) rotate(286.6012476072268)"><path class="outline" fill="#A5ABB6" stroke="none" d="M 25 0.5 L 56.86404075516896 0.5 L 56.86404075516896 -0.5 L 25 -0.5 Z M 91.30935325516896 0.5 L 123.17339401033792 0.5 L 123.17339401033792 3.5 L 130.17339401033792 0 L 123.17339401033792 -3.5 L 123.17339401033792 -0.5 L 91.30935325516896 -0.5 Z"/><text text-anchor="middle" pointer-events="none" font-size="8px" fill="#000000" x="74.08669700516896" y="3" font-family="sans-serif">ORIGIN</text></g><g class="relationship" transform="translate(11.663623487381951 393.6454493101584) rotate(312.63438756751054)"><path class="outline" fill="#A5ABB6" stroke="none" d="M 25 0.5 L 71.81415548185295 0.5 L 71.81415548185295 -0.5 L 25 -0.5 Z M 106.25946798185295 0.5 L 153.0736234637059 0.5 L 153.0736234637059 3.5 L 160.0736234637059 0 L 153.0736234637059 -3.5 L 153.0736234637059 -0.5 L 106.25946798185295 -0.5 Z"/><text text-anchor="middle" pointer-events="none" font-size="8px" fill="#000000" x="89.03681173185295" y="3" font-family="sans-serif">ORIGIN</text></g><g class="relationship" transform="translate(8.21172992278068 89.93157670049584) rotate(412.44954861922605)"><path class="outline" fill="#A5ABB6" stroke="none" d="M 25 0.5 L 72.57813193318808 0.5 L 72.57813193318808 -0.5 L 25 -0.5 Z M 131.76563193318808 0.5 L 179.34376386637615 0.5 L 179.34376386637615 3.5 L 186.34376386637615 0 L 179.34376386637615 -3.5 L 179.34376386637615 -0.5 L 131.76563193318808 -0.5 Z"/><text text-anchor="middle" pointer-events="none" font-size="8px" fill="#000000" x="102.17188193318808" y="3" font-family="sans-serif">DESTINATION</text></g><g class="relationship" transform="translate(8.21172992278068 89.93157670049584) rotate(246.73460148647598)"><path class="outline" fill="#A5ABB6" stroke="none" d="M 25 0.5 L 90.67635061653041 0.5 L 90.67635061653041 -0.5 L 25 -0.5 Z M 125.12166311653041 0.5 L 190.79801373306083 0.5 L 190.79801373306083 3.5 L 197.79801373306083 0 L 190.79801373306083 -3.5 L 190.79801373306083 -0.5 L 125.12166311653041 -0.5 Z"/><text text-anchor="middle" pointer-events="none" font-size="8px" fill="#000000" x="107.89900686653041" y="3" transform="rotate(180 107.89900686653041 0)" font-family="sans-serif">ORIGIN</text></g><g class="relationship" transform="translate(65.08493709528742 434.1614030633043) rotate(292.1536803847382)"><path class="outline" fill="#A5ABB6" stroke="none" d="M 25 0.5 L 74.65497647985089 0.5 L 74.65497647985089 -0.5 L 25 -0.5 Z M 109.10028897985089 0.5 L 158.75526545970177 0.5 L 158.75526545970177 3.5 L 165.75526545970177 0 L 158.75526545970177 -3.5 L 158.75526545970177 -0.5 L 109.10028897985089 -0.5 Z"/><text text-anchor="middle" pointer-events="none" font-size="8px" fill="#000000" x="91.87763272985089" y="3" font-family="sans-serif">ORIGIN</text></g><g class="relationship" transform="translate(139.49875492390117 452.2296979498143) rotate(269.26994430900413)"><path class="outline" fill="#A5ABB6" stroke="none" d="M 25 0.5 L 76.65584561898063 0.5 L 76.65584561898063 -0.5 L 25 -0.5 Z M 111.10115811898063 0.5 L 162.75700373796127 0.5 L 162.75700373796127 3.5 L 169.75700373796127 0 L 162.75700373796127 -3.5 L 162.75700373796127 -0.5 L 111.10115811898063 -0.5 Z"/><text text-anchor="middle" pointer-events="none" font-size="8px" fill="#000000" x="93.87850186898063" y="3" transform="rotate(180 93.87850186898063 0)" font-family="sans-serif">ORIGIN</text></g><g class="relationship" transform="translate(114.37892976903777 397.77822119649505) rotate(279.16670531795614)"><path class="outline" fill="#A5ABB6" stroke="none" d="M 25 0.5 L 50.32961048386288 0.5 L 50.32961048386288 -0.5 L 25 -0.5 Z M 84.77492298386288 0.5 L 110.10453346772576 0.5 L 110.10453346772576 3.5 L 117.10453346772576 0 L 110.10453346772576 -3.5 L 110.10453346772576 -0.5 L 84.77492298386288 -0.5 Z"/><text text-anchor="middle" pointer-events="none" font-size="8px" fill="#000000" x="67.55226673386288" y="3" font-family="sans-serif">ORIGIN</text></g><g class="relationship" transform="translate(58.43109147060316 57.85721995809344) rotate(428.51259605882643)"><path class="outline" fill="#A5ABB6" stroke="none" d="M 25 0.5 L 74.1774416757072 0.5 L 74.1774416757072 -0.5 L 25 -0.5 Z M 133.3649416757072 0.5 L 182.5423833514144 0.5 L 182.5423833514144 3.5 L 189.5423833514144 0 L 182.5423833514144 -3.5 L 182.5423833514144 -0.5 L 133.3649416757072 -0.5 Z"/><text text-anchor="middle" pointer-events="none" font-size="8px" fill="#000000" x="103.7711916757072" y="3" font-family="sans-serif">DESTINATION</text></g><g class="relationship" transform="translate(58.43109147060316 57.85721995809344) rotate(231.3124657293979)"><path class="outline" fill="#A5ABB6" stroke="none" d="M 25 0.5 L 89.84247392061633 0.5 L 89.84247392061633 -0.5 L 25 -0.5 Z M 124.28778642061633 0.5 L 189.13026034123266 0.5 L 189.13026034123266 3.5 L 196.13026034123266 0 L 189.13026034123266 -3.5 L 189.13026034123266 -0.5 L 124.28778642061633 -0.5 Z"/><text text-anchor="middle" pointer-events="none" font-size="8px" fill="#000000" x="107.06513017061633" y="3" transform="rotate(180 107.06513017061633 0)" font-family="sans-serif">ORIGIN</text></g><g class="relationship" transform="translate(225.53029821090817 72.25253701580893) rotate(475.54030943593176)"><path class="outline" fill="#A5ABB6" stroke="none" d="M 25 0.5 L 81.92592226449145 0.5 L 81.92592226449145 -0.5 L 25 -0.5 Z M 116.37123476449145 0.5 L 173.2971570289829 0.5 L 173.2971570289829 3.5 L 180.2971570289829 0 L 173.2971570289829 -3.5 L 173.2971570289829 -0.5 L 116.37123476449145 -0.5 Z"/><text text-anchor="middle" pointer-events="none" font-size="8px" fill="#000000" x="99.14857851449145" y="3" transform="rotate(180 99.14857851449145 0)" font-family="sans-serif">ORIGIN</text></g><g class="relationship" transform="translate(300.5660851906198 142.5866417599746) rotate(504.9098929661719)"><path class="outline" fill="#A5ABB6" stroke="none" d="M 25 0.5 L 79.21564794224498 0.5 L 79.21564794224498 -0.5 L 25 -0.5 Z M 113.66096044224498 0.5 L 167.87660838448997 0.5 L 167.87660838448997 3.5 L 174.87660838448997 0 L 167.87660838448997 -3.5 L 167.87660838448997 -0.5 L 113.66096044224498 -0.5 Z"/><text text-anchor="middle" pointer-events="none" font-size="8px" fill="#000000" x="96.43830419224498" y="3" transform="rotate(180 96.43830419224498 0)" font-family="sans-serif">ORIGIN</text></g><g class="relationship" transform="translate(240.78005843771953 146.26983999081713) rotate(493.01369834590923)"><path class="outline" fill="#A5ABB6" stroke="none" d="M 25 0.5 L 55.33046841932503 0.5 L 55.33046841932503 -0.5 L 25 -0.5 Z M 89.77578091932503 0.5 L 120.10624933865006 0.5 L 120.10624933865006 3.5 L 127.10624933865006 0 L 120.10624933865006 -3.5 L 120.10624933865006 -0.5 L 89.77578091932503 -0.5 Z"/><text text-anchor="middle" pointer-events="none" font-size="8px" fill="#000000" x="72.55312466932503" y="3" transform="rotate(180 72.55312466932503 0)" font-family="sans-serif">ORIGIN</text></g><g class="relationship" transform="translate(333.989459719582 192.26540178323398) rotate(521.6788236131474)"><path class="outline" fill="#A5ABB6" stroke="none" d="M 25 0.5 L 83.0223477756928 0.5 L 83.0223477756928 -0.5 L 25 -0.5 Z M 117.4676602756928 0.5 L 175.4900080513856 0.5 L 175.4900080513856 3.5 L 182.4900080513856 0 L 175.4900080513856 -3.5 L 175.4900080513856 -0.5 L 117.4676602756928 -0.5 Z"/><text text-anchor="middle" pointer-events="none" font-size="8px" fill="#000000" x="100.2450040256928" y="3" transform="rotate(180 100.2450040256928 0)" font-family="sans-serif">ORIGIN</text></g><g class="relationship" transform="translate(274.2640779093641 196.00081006206685) rotate(515.8672323533978)"><path class="outline" fill="#A5ABB6" stroke="none" d="M 25 0.5 L 54.47280166037295 0.5 L 54.47280166037295 -0.5 L 25 -0.5 Z M 88.91811416037295 0.5 L 118.3909158207459 0.5 L 118.3909158207459 3.5 L 125.3909158207459 0 L 118.3909158207459 -3.5 L 118.3909158207459 -0.5 L 88.91811416037295 -0.5 Z"/><text text-anchor="middle" pointer-events="none" font-size="8px" fill="#000000" x="71.69545791037295" y="3" transform="rotate(180 71.69545791037295 0)" font-family="sans-serif">ORIGIN</text></g><g class="relationship" transform="translate(123.43287416906682 -24.150169429682126) rotate(374.8105350288843)"><path class="outline" fill="#A5ABB6" stroke="none" d="M 25 0.5 L 77.5662377061528 0.5 L 77.5662377061528 -0.5 L 25 -0.5 Z M 136.7537377061528 0.5 L 189.3199754123056 0.5 L 189.3199754123056 3.5 L 196.3199754123056 0 L 189.3199754123056 -3.5 L 189.3199754123056 -0.5 L 136.7537377061528 -0.5 Z"/><text text-anchor="middle" pointer-events="none" font-size="8px" fill="#000000" x="107.1599877061528" y="3" font-family="sans-serif">DESTINATION</text></g><g class="relationship" transform="translate(123.43287416906682 -24.150169429682126) rotate(204.02780013433772)"><path class="outline" fill="#A5ABB6" stroke="none" d="M 25 0.5 L 90.52973803336783 0.5 L 90.52973803336783 -0.5 L 25 -0.5 Z M 124.97505053336783 0.5 L 190.50478856673567 0.5 L 190.50478856673567 3.5 L 197.50478856673567 0 L 190.50478856673567 -3.5 L 190.50478856673567 -0.5 L 124.97505053336783 -0.5 Z"/><text text-anchor="middle" pointer-events="none" font-size="8px" fill="#000000" x="107.75239428336783" y="3" transform="rotate(180 107.75239428336783 0)" font-family="sans-serif">ORIGIN</text></g><g class="relationship" transform="translate(139.0449727099689 -81.6651261906942) rotate(389.9066121998454)"><path class="outline" fill="#A5ABB6" stroke="none" d="M 25 0.5 L 81.31895060976453 0.5 L 81.31895060976453 -0.5 L 25 -0.5 Z M 140.50645060976453 0.5 L 196.82540121952906 0.5 L 196.82540121952906 3.5 L 203.82540121952906 0 L 196.82540121952906 -3.5 L 196.82540121952906 -0.5 L 140.50645060976453 -0.5 Z"/><text text-anchor="middle" pointer-events="none" font-size="8px" fill="#000000" x="110.91270060976453" y="3" font-family="sans-serif">DESTINATION</text></g><g class="relationship" transform="translate(139.0449727099689 -81.6651261906942) rotate(188.59708599130482)"><path class="outline" fill="#A5ABB6" stroke="none" d="M 25 0.5 L 89.93894018364338 0.5 L 89.93894018364338 -0.5 L 25 -0.5 Z M 124.38425268364338 0.5 L 189.32319286728676 0.5 L 189.32319286728676 3.5 L 196.32319286728676 0 L 189.32319286728676 -3.5 L 189.32319286728676 -0.5 L 124.38425268364338 -0.5 Z"/><text text-anchor="middle" pointer-events="none" font-size="8px" fill="#000000" x="107.16159643364338" y="3" transform="rotate(180 107.16159643364338 0)" font-family="sans-serif">ORIGIN</text></g><g class="relationship" transform="translate(209.2252501377474 440.05103530723426) rotate(248.4199772381612)"><path class="outline" fill="#A5ABB6" stroke="none" d="M 25 0.5 L 77.4392925615158 0.5 L 77.4392925615158 -0.5 L 25 -0.5 Z M 111.8846050615158 0.5 L 164.3238976230316 0.5 L 164.3238976230316 3.5 L 171.3238976230316 0 L 164.3238976230316 -3.5 L 164.3238976230316 -0.5 L 111.8846050615158 -0.5 Z"/><text text-anchor="middle" pointer-events="none" font-size="8px" fill="#000000" x="94.6619488115158" y="3" transform="rotate(180 94.6619488115158 0)" font-family="sans-serif">ORIGIN</text></g><g class="relationship" transform="translate(264.5971799810131 402.8262637667099) rotate(228.72279514886782)"><path class="outline" fill="#A5ABB6" stroke="none" d="M 25 0.5 L 75.97235695395021 0.5 L 75.97235695395021 -0.5 L 25 -0.5 Z M 110.41766945395021 0.5 L 161.39002640790042 0.5 L 161.39002640790042 3.5 L 168.39002640790042 0 L 161.39002640790042 -3.5 L 161.39002640790042 -0.5 L 110.41766945395021 -0.5 Z"/><text text-anchor="middle" pointer-events="none" font-size="8px" fill="#000000" x="93.19501320395021" y="3" transform="rotate(180 93.19501320395021 0)" font-family="sans-serif">ORIGIN</text></g><g class="relationship" transform="translate(-102.49583078236346 206.679071915023) rotate(214.55795688029065)"><path class="outline" fill="#A5ABB6" stroke="none" d="M 25 0.5 L 91.5265359068679 0.5 L 91.5265359068679 -0.5 L 25 -0.5 Z M 150.7140359068679 0.5 L 217.2405718137358 0.5 L 217.2405718137358 3.5 L 224.2405718137358 0 L 217.2405718137358 -3.5 L 217.2405718137358 -0.5 L 150.7140359068679 -0.5 Z"/><text text-anchor="middle" pointer-events="none" font-size="8px" fill="#000000" x="121.1202859068679" y="3" transform="rotate(180 121.1202859068679 0)" font-family="sans-serif">DESTINATION</text></g><g class="relationship" transform="translate(-241.78588714092078 -110.22333432166833) rotate(470.5993862132421)"><path class="outline" fill="#A5ABB6" stroke="none" d="M 25 0.5 L 73.03344309132484 0.5 L 73.03344309132484 -0.5 L 25 -0.5 Z M 107.47875559132484 0.5 L 155.51219868264968 0.5 L 155.51219868264968 3.5 L 162.51219868264968 0 L 155.51219868264968 -3.5 L 155.51219868264968 -0.5 L 107.47875559132484 -0.5 Z"/><text text-anchor="middle" pointer-events="none" font-size="8px" fill="#000000" x="90.25609934132484" y="3" transform="rotate(180 90.25609934132484 0)" font-family="sans-serif">ORIGIN</text></g><g class="relationship" transform="translate(-241.78588714092078 -110.22333432166833) rotate(358.3995098717098)"><path class="outline" fill="#A5ABB6" stroke="none" d="M 25 0.5 L 47.93509013290296 0.5 L 47.93509013290296 -0.5 L 25 -0.5 Z M 107.12259013290296 0.5 L 130.0576802658059 0.5 L 130.0576802658059 3.5 L 137.0576802658059 0 L 130.0576802658059 -3.5 L 130.0576802658059 -0.5 L 107.12259013290296 -0.5 Z"/><text text-anchor="middle" pointer-events="none" font-size="8px" fill="#000000" x="77.52884013290296" y="3" font-family="sans-serif">DESTINATION</text></g><g class="relationship" transform="translate(-227.02777635267242 -52.18200758603453) rotate(484.49593099679026)"><path class="outline" fill="#A5ABB6" stroke="none" d="M 25 0.5 L 38.17945408064385 0.5 L 38.17945408064385 -0.5 L 25 -0.5 Z M 97.36695408064385 0.5 L 110.5464081612877 0.5 L 110.5464081612877 3.5 L 117.5464081612877 0 L 110.5464081612877 -3.5 L 110.5464081612877 -0.5 L 97.36695408064385 -0.5 Z"/><text text-anchor="middle" pointer-events="none" font-size="8px" fill="#000000" x="67.77320408064385" y="3" transform="rotate(180 67.77320408064385 0)" font-family="sans-serif">DESTINATION</text></g><g class="relationship" transform="translate(-227.02777635267242 -52.18200758603453) rotate(336.97708521440507)"><path class="outline" fill="#A5ABB6" stroke="none" d="M 25 0.5 L 59.266796159861 0.5 L 59.266796159861 -0.5 L 25 -0.5 Z M 93.712108659861 0.5 L 127.978904819722 0.5 L 127.978904819722 3.5 L 134.978904819722 0 L 127.978904819722 -3.5 L 127.978904819722 -0.5 L 93.712108659861 -0.5 Z"/><text text-anchor="middle" pointer-events="none" font-size="8px" fill="#000000" x="76.489452409861" y="3" font-family="sans-serif">ORIGIN</text></g><g class="relationship" transform="translate(-284.5201880991028 -68.48165770643293) rotate(459.85418863515144)"><path class="outline" fill="#A5ABB6" stroke="none" d="M 25 0.5 L 34.79870872252535 0.5 L 34.79870872252535 -0.5 L 25 -0.5 Z M 93.98620872252535 0.5 L 103.7849174450507 0.5 L 103.7849174450507 3.5 L 110.7849174450507 0 L 103.7849174450507 -3.5 L 103.7849174450507 -0.5 L 93.98620872252535 -0.5 Z"/><text text-anchor="middle" pointer-events="none" font-size="8px" fill="#000000" x="64.39245872252535" y="3" transform="rotate(180 64.39245872252535 0)" font-family="sans-serif">DESTINATION</text></g><g class="relationship" transform="translate(-284.5201880991028 -68.48165770643293) rotate(347.2652852507953)"><path class="outline" fill="#A5ABB6" stroke="none" d="M 25 0.5 L 84.22327083215458 0.5 L 84.22327083215458 -0.5 L 25 -0.5 Z M 118.66858333215458 0.5 L 177.89185416430917 0.5 L 177.89185416430917 3.5 L 184.89185416430917 0 L 177.89185416430917 -3.5 L 177.89185416430917 -0.5 L 118.66858333215458 -0.5 Z"/><text text-anchor="middle" pointer-events="none" font-size="8px" fill="#000000" x="101.44592708215458" y="3" font-family="sans-serif">ORIGIN</text></g><g class="relationship" transform="translate(8.622654344659182 333.1198234054866) rotate(329.4996285316202)"><path class="outline" fill="#A5ABB6" stroke="none" d="M 25 0.5 L 53.78450672903841 0.5 L 53.78450672903841 -0.5 L 25 -0.5 Z M 88.22981922903841 0.5 L 117.01432595807682 0.5 L 117.01432595807682 3.5 L 124.01432595807682 0 L 117.01432595807682 -3.5 L 117.01432595807682 -0.5 L 88.22981922903841 -0.5 Z"/><text text-anchor="middle" pointer-events="none" font-size="8px" fill="#000000" x="71.00716297903841" y="3" font-family="sans-serif">ORIGIN</text></g><g class="relationship" transform="translate(174.67185149307187 391.01380846310883) rotate(254.25136404302918)"><path class="outline" fill="#A5ABB6" stroke="none" d="M 25 0.5 L 48.643898681868166 0.5 L 48.643898681868166 -0.5 L 25 -0.5 Z M 83.08921118186817 0.5 L 106.73310986373633 0.5 L 106.73310986373633 3.5 L 113.73310986373633 0 L 106.73310986373633 -3.5 L 106.73310986373633 -0.5 L 83.08921118186817 -0.5 Z"/><text text-anchor="middle" pointer-events="none" font-size="8px" fill="#000000" x="65.86655493186817" y="3" transform="rotate(180 65.86655493186817 0)" font-family="sans-serif">ORIGIN</text></g><g class="relationship" transform="translate(301.0770408137735 351.7019156309727) rotate(209.86714272409392)"><path class="outline" fill="#A5ABB6" stroke="none" d="M 25 0.5 L 73.8709231614982 0.5 L 73.8709231614982 -0.5 L 25 -0.5 Z M 108.3162356614982 0.5 L 157.1871588229964 0.5 L 157.1871588229964 3.5 L 164.1871588229964 0 L 157.1871588229964 -3.5 L 157.1871588229964 -0.5 L 108.3162356614982 -0.5 Z"/><text text-anchor="middle" pointer-events="none" font-size="8px" fill="#000000" x="91.0935794114982" y="3" transform="rotate(180 91.0935794114982 0)" font-family="sans-serif">ORIGIN</text></g><g class="relationship" transform="translate(66.3771500250615 361.7901467259219) rotate(304.1085047894194)"><path class="outline" fill="#A5ABB6" stroke="none" d="M 25 0.5 L 42.26316909848659 0.5 L 42.26316909848659 -0.5 L 25 -0.5 Z M 76.7084815984866 0.5 L 93.97165069697319 0.5 L 93.97165069697319 3.5 L 100.97165069697319 0 L 93.97165069697319 -3.5 L 93.97165069697319 -0.5 L 76.7084815984866 -0.5 Z"/><text text-anchor="middle" pointer-events="none" font-size="8px" fill="#000000" x="59.48582534848659" y="3" font-family="sans-serif">ORIGIN</text></g><g class="relationship" transform="translate(257.04876049546885 298.99815409864283) rotate(199.0765599545436)"><path class="outline" fill="#A5ABB6" stroke="none" d="M 25 0.5 L 42.7805207414328 0.5 L 42.7805207414328 -0.5 L 25 -0.5 Z M 77.22583324143281 0.5 L 95.0063539828656 0.5 L 95.0063539828656 3.5 L 102.0063539828656 0 L 95.0063539828656 -3.5 L 95.0063539828656 -0.5 L 77.22583324143281 -0.5 Z"/><text text-anchor="middle" pointer-events="none" font-size="8px" fill="#000000" x="60.0031769914328" y="3" transform="rotate(180 60.0031769914328 0)" font-family="sans-serif">ORIGIN</text></g><g class="relationship" transform="translate(225.91068448720705 356.99638248883906) rotate(228.22461000995133)"><path class="outline" fill="#A5ABB6" stroke="none" d="M 25 0.5 L 45.99289691100725 0.5 L 45.99289691100725 -0.5 L 25 -0.5 Z M 80.43820941100725 0.5 L 101.4311063220145 0.5 L 101.4311063220145 3.5 L 108.4311063220145 0 L 101.4311063220145 -3.5 L 101.4311063220145 -0.5 L 80.43820941100725 -0.5 Z"/><text text-anchor="middle" pointer-events="none" font-size="8px" fill="#000000" x="63.21555316100725" y="3" transform="rotate(180 63.21555316100725 0)" font-family="sans-serif">ORIGIN</text></g><g class="relationship" transform="translate(316.5494836326928 291.67644868968944) rotate(190.78162757242103)"><path class="outline" fill="#A5ABB6" stroke="none" d="M 25 0.5 L 70.6565502973482 0.5 L 70.6565502973482 -0.5 L 25 -0.5 Z M 105.1018627973482 0.5 L 150.7584130946964 0.5 L 150.7584130946964 3.5 L 157.7584130946964 0 L 150.7584130946964 -3.5 L 150.7584130946964 -0.5 L 105.1018627973482 -0.5 Z"/><text text-anchor="middle" pointer-events="none" font-size="8px" fill="#000000" x="87.8792065473482" y="3" transform="rotate(180 87.8792065473482 0)" font-family="sans-serif">ORIGIN</text></g><g class="relationship" transform="translate(-102.49583078236346 206.679071915023) rotate(371.9769625990174)"><path class="outline" fill="#A5ABB6" stroke="none" d="M 25 0.5 L 101.69886501876032 0.5 L 101.69886501876032 -0.5 L 25 -0.5 Z M 136.14417751876033 0.5 L 212.84304253752063 0.5 L 212.84304253752063 3.5 L 219.84304253752063 0 L 212.84304253752063 -3.5 L 212.84304253752063 -0.5 L 136.14417751876033 -0.5 Z"/><text text-anchor="middle" pointer-events="none" font-size="8px" fill="#000000" x="118.92152126876032" y="3" font-family="sans-serif">ORIGIN</text></g><g class="relationship" transform="translate(9.050549798185688 196.73889261929173) rotate(265.33257909871605)"><path class="outline" fill="#A5ABB6" stroke="none" d="M 25 0.5 L 51.66612502638131 0.5 L 51.66612502638131 -0.5 L 25 -0.5 Z M 110.85362502638131 0.5 L 137.51975005276262 0.5 L 137.51975005276262 3.5 L 144.51975005276262 0 L 137.51975005276262 -3.5 L 137.51975005276262 -0.5 L 110.85362502638131 -0.5 Z"/><text text-anchor="middle" pointer-events="none" font-size="8px" fill="#000000" x="81.25987502638131" y="3" transform="rotate(180 81.25987502638131 0)" font-family="sans-serif">DESTINATION</text></g><g class="relationship" transform="translate(-91.726588341611 -18.483866134103703) rotate(388.00794843225594)"><path class="outline" fill="#A5ABB6" stroke="none" d="M 25 0.5 L 26.981514225158428 0.5 L 26.981514225158428 -0.5 L 25 -0.5 Z M 64.54010797515843 0.5 L 66.52162220031686 0.5 L 66.52162220031686 3.5 L 73.52162220031686 0 L 66.52162220031686 -3.5 L 66.52162220031686 -0.5 L 64.54010797515843 -0.5 Z"/><text text-anchor="middle" pointer-events="none" font-size="8px" fill="#000000" x="45.76081110015843" y="3" font-family="sans-serif">DESTI…</text></g><g class="relationship" transform="translate(-91.726588341611 -18.483866134103703) rotate(277.0675420169988)"><path class="outline" fill="#A5ABB6" stroke="none" d="M 25 0.5 L 27.778752186546463 0.5 L 27.778752186546463 -0.5 L 25 -0.5 Z M 62.22406468654646 0.5 L 65.00281687309293 0.5 L 65.00281687309293 3.5 L 72.00281687309293 0 L 65.00281687309293 -3.5 L 65.00281687309293 -0.5 L 62.22406468654646 -0.5 Z"/><text text-anchor="middle" pointer-events="none" font-size="8px" fill="#000000" x="45.00140843654646" y="3" font-family="sans-serif">ORIGIN</text></g><g class="relationship" transform="translate(59.16217344375195 163.78773083912824) rotate(244.83243548705514)"><path class="outline" fill="#A5ABB6" stroke="none" d="M 25 0.5 L 42.04228299085271 0.5 L 42.04228299085271 -0.5 L 25 -0.5 Z M 101.22978299085271 0.5 L 118.27206598170542 0.5 L 118.27206598170542 3.5 L 125.27206598170542 0 L 118.27206598170542 -3.5 L 118.27206598170542 -0.5 L 101.22978299085271 -0.5 Z"/><text text-anchor="middle" pointer-events="none" font-size="8px" fill="#000000" x="71.63603299085271" y="3" transform="rotate(180 71.63603299085271 0)" font-family="sans-serif">DESTINATION</text></g><g class="relationship" transform="translate(-148.38594904691752 -37.434258099447845) rotate(384.41868427540237)"><path class="outline" fill="#A5ABB6" stroke="none" d="M 25 0.5 L 58.15414696382831 0.5 L 58.15414696382831 -0.5 L 25 -0.5 Z M 92.59945946382831 0.5 L 125.75360642765662 0.5 L 125.75360642765662 3.5 L 132.75360642765662 0 L 125.75360642765662 -3.5 L 125.75360642765662 -0.5 L 92.59945946382831 -0.5 Z"/><text text-anchor="middle" pointer-events="none" font-size="8px" fill="#000000" x="75.37680321382831" y="3" font-family="sans-serif">ORIGIN</text></g><g class="relationship" transform="translate(-148.38594904691752 -37.434258099447845) rotate(311.5795695217603)"><path class="outline" fill="#A5ABB6" stroke="none" d="M 25 0.5 L 26.51103035093788 0.5 L 26.51103035093788 -0.5 L 25 -0.5 Z M 69.84696785093789 0.5 L 71.35799820187576 0.5 L 71.35799820187576 3.5 L 78.35799820187576 0 L 71.35799820187576 -3.5 L 71.35799820187576 -0.5 L 69.84696785093789 -0.5 Z"/><text text-anchor="middle" pointer-events="none" font-size="8px" fill="#000000" x="48.17899910093788" y="3" font-family="sans-serif">DESTIN…</text></g><g class="relationship" transform="translate(-72.01639519222685 287.3660617168923) rotate(208.09606941794834)"><path class="outline" fill="#A5ABB6" stroke="none" d="M 25 0.5 L 64.99635419079566 0.5 L 64.99635419079566 -0.5 L 25 -0.5 Z M 124.18385419079566 0.5 L 164.1802083815913 0.5 L 164.1802083815913 3.5 L 171.1802083815913 0 L 164.1802083815913 -3.5 L 164.1802083815913 -0.5 L 124.18385419079566 -0.5 Z"/><text text-anchor="middle" pointer-events="none" font-size="8px" fill="#000000" x="94.59010419079566" y="3" transform="rotate(180 94.59010419079566 0)" font-family="sans-serif">DESTINATION</text></g><g class="relationship" transform="translate(-175.20916236934835 50.48805885205926) rotate(475.8070133363537)"><path class="outline" fill="#A5ABB6" stroke="none" d="M 25 0.5 L 47.15294811930181 0.5 L 47.15294811930181 -0.5 L 25 -0.5 Z M 106.34044811930181 0.5 L 128.49339623860362 0.5 L 128.49339623860362 3.5 L 135.49339623860362 0 L 128.49339623860362 -3.5 L 128.49339623860362 -0.5 L 106.34044811930181 -0.5 Z"/><text text-anchor="middle" pointer-events="none" font-size="8px" fill="#000000" x="76.74669811930181" y="3" transform="rotate(180 76.74669811930181 0)" font-family="sans-serif">DESTINATION</text></g><g class="relationship" transform="translate(-175.20916236934835 50.48805885205926) rotate(300.00460423404485)"><path class="outline" fill="#A5ABB6" stroke="none" d="M 25 0.5 L 74.6817980272463 0.5 L 74.6817980272463 -0.5 L 25 -0.5 Z M 109.1271105272463 0.5 L 158.8089085544926 0.5 L 158.8089085544926 3.5 L 165.8089085544926 0 L 158.8089085544926 -3.5 L 158.8089085544926 -0.5 L 109.1271105272463 -0.5 Z"/><text text-anchor="middle" pointer-events="none" font-size="8px" fill="#000000" x="91.9044542772463" y="3" font-family="sans-serif">ORIGIN</text></g><g class="relationship" transform="translate(-227.77757855427396 21.914453900045313) rotate(455.7089412168999)"><path class="outline" fill="#A5ABB6" stroke="none" d="M 25 0.5 L 53.86770920539547 0.5 L 53.86770920539547 -0.5 L 25 -0.5 Z M 113.05520920539547 0.5 L 141.92291841079094 0.5 L 141.92291841079094 3.5 L 148.92291841079094 0 L 141.92291841079094 -3.5 L 141.92291841079094 -0.5 L 113.05520920539547 -0.5 Z"/><text text-anchor="middle" pointer-events="none" font-size="8px" fill="#000000" x="83.46145920539547" y="3" transform="rotate(180 83.46145920539547 0)" font-family="sans-serif">DESTINATION</text></g><g class="relationship" transform="translate(-227.77757855427396 21.914453900045313) rotate(317.2777582376612)"><path class="outline" fill="#A5ABB6" stroke="none" d="M 25 0.5 L 79.99597884246404 0.5 L 79.99597884246404 -0.5 L 25 -0.5 Z M 114.44129134246404 0.5 L 169.43727018492808 0.5 L 169.43727018492808 3.5 L 176.43727018492808 0 L 169.43727018492808 -3.5 L 169.43727018492808 -0.5 L 114.44129134246404 -0.5 Z"/><text text-anchor="middle" pointer-events="none" font-size="8px" fill="#000000" x="97.21863509246404" y="3" font-family="sans-serif">ORIGIN</text></g><g class="relationship" transform="translate(9.050549798185688 196.73889261929173) rotate(385.3950869129615)"><path class="outline" fill="#A5ABB6" stroke="none" d="M 25 0.5 L 50.10458478834644 0.5 L 50.10458478834644 -0.5 L 25 -0.5 Z M 84.54989728834644 0.5 L 109.65448207669289 0.5 L 109.65448207669289 3.5 L 116.65448207669289 0 L 109.65448207669289 -3.5 L 109.65448207669289 -0.5 L 84.54989728834644 -0.5 Z"/><text text-anchor="middle" pointer-events="none" font-size="8px" fill="#000000" x="67.32724103834644" y="3" font-family="sans-serif">ORIGIN</text></g><g class="relationship" transform="translate(59.16217344375195 163.78773083912824) rotate(410.27713104568073)"><path class="outline" fill="#A5ABB6" stroke="none" d="M 25 0.5 L 40.18967464981944 0.5 L 40.18967464981944 -0.5 L 25 -0.5 Z M 74.63498714981944 0.5 L 89.82466179963887 0.5 L 89.82466179963887 3.5 L 96.82466179963887 0 L 89.82466179963887 -3.5 L 89.82466179963887 -0.5 L 74.63498714981944 -0.5 Z"/><text text-anchor="middle" pointer-events="none" font-size="8px" fill="#000000" x="57.41233089981944" y="3" font-family="sans-serif">ORIGIN</text></g><g class="relationship" transform="translate(-72.01639519222685 287.3660617168923) rotate(351.865705094586)"><path class="outline" fill="#A5ABB6" stroke="none" d="M 25 0.5 L 84.85638328614623 0.5 L 84.85638328614623 -0.5 L 25 -0.5 Z M 119.30169578614623 0.5 L 179.15807907229245 0.5 L 179.15807907229245 3.5 L 186.15807907229245 0 L 179.15807907229245 -3.5 L 179.15807907229245 -0.5 L 119.30169578614623 -0.5 Z"/><text text-anchor="middle" pointer-events="none" font-size="8px" fill="#000000" x="102.07903953614623" y="3" font-family="sans-serif">ORIGIN</text></g><g class="relationship" transform="translate(198.66837464709073 -104.72287601670604) rotate(506.9194562301469)"><path class="outline" fill="#A5ABB6" stroke="none" d="M 25 0.5 L 88.28765182205768 0.5 L 88.28765182205768 -0.5 L 25 -0.5 Z M 147.47515182205768 0.5 L 210.76280364411537 0.5 L 210.76280364411537 3.5 L 217.76280364411537 0 L 210.76280364411537 -3.5 L 210.76280364411537 -0.5 L 147.47515182205768 -0.5 Z"/><text text-anchor="middle" pointer-events="none" font-size="8px" fill="#000000" x="117.88140182205768" y="3" transform="rotate(180 117.88140182205768 0)" font-family="sans-serif">DESTINATION</text></g><g class="relationship" transform="translate(198.66837464709073 -104.72287601670604) rotate(320.2058072331483)"><path class="outline" fill="#A5ABB6" stroke="none" d="M 25 0.5 L 75.8886392448193 0.5 L 75.8886392448193 -0.5 L 25 -0.5 Z M 110.3339517448193 0.5 L 161.2225909896386 0.5 L 161.2225909896386 3.5 L 168.2225909896386 0 L 161.2225909896386 -3.5 L 161.2225909896386 -0.5 L 110.3339517448193 -0.5 Z"/><text text-anchor="middle" pointer-events="none" font-size="8px" fill="#000000" x="93.1112954948193" y="3" font-family="sans-serif">ORIGIN</text></g></g><g class="layer nodes"><g class="node" transform="translate(121.53292431678729,-603.9993267660343)"><circle class="outline" cx="0" cy="0" r="25" fill="#4C8EDA" stroke="#2870c2" stroke-width="2px"/><text text-anchor="middle" pointer-events="none" font-family="sans-serif" dy="1.5625" font-size="25" fill="#FFFFFF"/><text text-anchor="middle" pointer-events="none" x="0" y="5" font-size="10px" fill="#FFFFFF" font-family="sans-serif"> DAY</text></g><g class="node" transform="translate(137.01725257234034,257.4885039227994)"><circle class="outline" cx="0" cy="0" r="25" fill="#4C8EDA" stroke="#2870c2" stroke-width="2px"/><text text-anchor="middle" pointer-events="none" font-family="sans-serif" dy="1.5625" font-size="25" fill="#FFFFFF"/><text text-anchor="middle" pointer-events="none" x="0" y="5" font-size="10px" fill="#FFFFFF" font-family="sans-serif"> LAX</text></g><g class="node" transform="translate(225.53029821090817,72.25253701580893)"><circle class="outline" cx="0" cy="0" r="25" fill="#ECB5C9" stroke="#da7298" stroke-width="2px"/><text text-anchor="middle" pointer-events="none" font-family="sans-serif" dy="1.5625" font-size="25" fill="#2A2C34"/><text text-anchor="middle" pointer-events="none" x="0" y="5" font-size="10px" fill="#2A2C34" font-family="sans-serif"> 11/29/20…</text></g><g class="node" transform="translate(240.78005843771953,146.26983999081713)"><circle class="outline" cx="0" cy="0" r="25" fill="#ECB5C9" stroke="#da7298" stroke-width="2px"/><text text-anchor="middle" pointer-events="none" font-family="sans-serif" dy="1.5625" font-size="25" fill="#2A2C34"/><text text-anchor="middle" pointer-events="none" x="0" y="5" font-size="10px" fill="#2A2C34" font-family="sans-serif"> 11/3/2015</text></g><g class="node" transform="translate(300.5660851906198,142.5866417599746)"><circle class="outline" cx="0" cy="0" r="25" fill="#ECB5C9" stroke="#da7298" stroke-width="2px"/><text text-anchor="middle" pointer-events="none" font-family="sans-serif" dy="1.5625" font-size="25" fill="#2A2C34"/><text text-anchor="middle" pointer-events="none" x="0" y="5" font-size="10px" fill="#2A2C34" font-family="sans-serif"> 11/2/2015</text></g><g class="node" transform="translate(333.989459719582,192.26540178323398)"><circle class="outline" cx="0" cy="0" r="25" fill="#ECB5C9" stroke="#da7298" stroke-width="2px"/><text text-anchor="middle" pointer-events="none" font-family="sans-serif" dy="1.5625" font-size="25" fill="#2A2C34"/><text text-anchor="middle" pointer-events="none" x="0" y="5" font-size="10px" fill="#2A2C34" font-family="sans-serif"> 11/1/2015</text></g><g class="node" transform="translate(274.2640779093641,196.00081006206685)"><circle class="outline" cx="0" cy="0" r="25" fill="#ECB5C9" stroke="#da7298" stroke-width="2px"/><text text-anchor="middle" pointer-events="none" font-family="sans-serif" dy="1.5625" font-size="25" fill="#2A2C34"/><text text-anchor="middle" pointer-events="none" x="0" y="5" font-size="10px" fill="#2A2C34" font-family="sans-serif"> 11/4/2015</text></g><g class="node" transform="translate(11.663623487381951,393.6454493101584)"><circle class="outline" cx="0" cy="0" r="25" fill="#ECB5C9" stroke="#da7298" stroke-width="2px"/><text text-anchor="middle" pointer-events="none" font-family="sans-serif" dy="1.5625" font-size="25" fill="#2A2C34"/><text text-anchor="middle" pointer-events="none" x="0" y="5" font-size="10px" fill="#2A2C34" font-family="sans-serif"> 11/3/2015</text></g><g class="node" transform="translate(65.08493709528742,434.1614030633043)"><circle class="outline" cx="0" cy="0" r="25" fill="#ECB5C9" stroke="#da7298" stroke-width="2px"/><text text-anchor="middle" pointer-events="none" font-family="sans-serif" dy="1.5625" font-size="25" fill="#2A2C34"/><text text-anchor="middle" pointer-events="none" x="0" y="5" font-size="10px" fill="#2A2C34" font-family="sans-serif"> 11/1/2015</text></g><g class="node" transform="translate(139.49875492390117,452.2296979498143)"><circle class="outline" cx="0" cy="0" r="25" fill="#ECB5C9" stroke="#da7298" stroke-width="2px"/><text text-anchor="middle" pointer-events="none" font-family="sans-serif" dy="1.5625" font-size="25" fill="#2A2C34"/><text text-anchor="middle" pointer-events="none" x="0" y="5" font-size="10px" fill="#2A2C34" font-family="sans-serif"> 11/2/2015</text></g><g class="node" transform="translate(114.37892976903777,397.77822119649505)"><circle class="outline" cx="0" cy="0" r="25" fill="#ECB5C9" stroke="#da7298" stroke-width="2px"/><text text-anchor="middle" pointer-events="none" font-family="sans-serif" dy="1.5625" font-size="25" fill="#2A2C34"/><text text-anchor="middle" pointer-events="none" x="0" y="5" font-size="10px" fill="#2A2C34" font-family="sans-serif"> 11/4/2015</text></g><g class="node" transform="translate(209.2252501377474,440.05103530723426)"><circle class="outline" cx="0" cy="0" r="25" fill="#ECB5C9" stroke="#da7298" stroke-width="2px"/><text text-anchor="middle" pointer-events="none" font-family="sans-serif" dy="1.5625" font-size="25" fill="#2A2C34"/><text text-anchor="middle" pointer-events="none" x="0" y="5" font-size="10px" fill="#2A2C34" font-family="sans-serif"> 11/1/2015</text></g><g class="node" transform="translate(264.5971799810131,402.8262637667099)"><circle class="outline" cx="0" cy="0" r="25" fill="#ECB5C9" stroke="#da7298" stroke-width="2px"/><text text-anchor="middle" pointer-events="none" font-family="sans-serif" dy="1.5625" font-size="25" fill="#2A2C34"/><text text-anchor="middle" pointer-events="none" x="0" y="5" font-size="10px" fill="#2A2C34" font-family="sans-serif"> 11/2/2015</text></g><g class="node" transform="translate(-102.49583078236346,206.679071915023)"><circle class="outline" cx="0" cy="0" r="25" fill="#ECB5C9" stroke="#da7298" stroke-width="2px"/><text text-anchor="middle" pointer-events="none" font-family="sans-serif" dy="1.5625" font-size="25" fill="#2A2C34"/><text text-anchor="middle" pointer-events="none" x="0" y="5" font-size="10px" fill="#2A2C34" font-family="sans-serif"> 11/30/20…</text></g><g class="node" transform="translate(8.622654344659182,333.1198234054866)"><circle class="outline" cx="0" cy="0" r="25" fill="#ECB5C9" stroke="#da7298" stroke-width="2px"/><text text-anchor="middle" pointer-events="none" font-family="sans-serif" dy="1.5625" font-size="25" fill="#2A2C34"/><text text-anchor="middle" pointer-events="none" x="0" y="5" font-size="10px" fill="#2A2C34" font-family="sans-serif"> 11/2/2015</text></g><g class="node" transform="translate(174.67185149307187,391.01380846310883)"><circle class="outline" cx="0" cy="0" r="25" fill="#ECB5C9" stroke="#da7298" stroke-width="2px"/><text text-anchor="middle" pointer-events="none" font-family="sans-serif" dy="1.5625" font-size="25" fill="#2A2C34"/><text text-anchor="middle" pointer-events="none" x="0" y="5" font-size="10px" fill="#2A2C34" font-family="sans-serif"> 11/3/2015</text></g><g class="node" transform="translate(301.0770408137735,351.7019156309727)"><circle class="outline" cx="0" cy="0" r="25" fill="#ECB5C9" stroke="#da7298" stroke-width="2px"/><text text-anchor="middle" pointer-events="none" font-family="sans-serif" dy="1.5625" font-size="25" fill="#2A2C34"/><text text-anchor="middle" pointer-events="none" x="0" y="5" font-size="10px" fill="#2A2C34" font-family="sans-serif"> 11/4/2015</text></g><g class="node" transform="translate(66.3771500250615,361.7901467259219)"><circle class="outline" cx="0" cy="0" r="25" fill="#ECB5C9" stroke="#da7298" stroke-width="2px"/><text text-anchor="middle" pointer-events="none" font-family="sans-serif" dy="1.5625" font-size="25" fill="#2A2C34"/><text text-anchor="middle" pointer-events="none" x="0" y="5" font-size="10px" fill="#2A2C34" font-family="sans-serif"> 11/3/2015</text></g><g class="node" transform="translate(257.04876049546885,298.99815409864283)"><circle class="outline" cx="0" cy="0" r="25" fill="#ECB5C9" stroke="#da7298" stroke-width="2px"/><text text-anchor="middle" pointer-events="none" font-family="sans-serif" dy="1.5625" font-size="25" fill="#2A2C34"/><text text-anchor="middle" pointer-events="none" x="0" y="5" font-size="10px" fill="#2A2C34" font-family="sans-serif"> 11/1/2015</text></g><g class="node" transform="translate(225.91068448720705,356.99638248883906)"><circle class="outline" cx="0" cy="0" r="25" fill="#ECB5C9" stroke="#da7298" stroke-width="2px"/><text text-anchor="middle" pointer-events="none" font-family="sans-serif" dy="1.5625" font-size="25" fill="#2A2C34"/><text text-anchor="middle" pointer-events="none" x="0" y="5" font-size="10px" fill="#2A2C34" font-family="sans-serif"> 11/1/2015</text></g><g class="node" transform="translate(316.5494836326928,291.67644868968944)"><circle class="outline" cx="0" cy="0" r="25" fill="#ECB5C9" stroke="#da7298" stroke-width="2px"/><text text-anchor="middle" pointer-events="none" font-family="sans-serif" dy="1.5625" font-size="25" fill="#2A2C34"/><text text-anchor="middle" pointer-events="none" x="0" y="5" font-size="10px" fill="#2A2C34" font-family="sans-serif"> 11/2/2015</text></g><g class="node" transform="translate(9.050549798185688,196.73889261929173)"><circle class="outline" cx="0" cy="0" r="25" fill="#ECB5C9" stroke="#da7298" stroke-width="2px"/><text text-anchor="middle" pointer-events="none" font-family="sans-serif" dy="1.5625" font-size="25" fill="#2A2C34"/><text text-anchor="middle" pointer-events="none" x="0" y="5" font-size="10px" fill="#2A2C34" font-family="sans-serif"> 11/30/20…</text></g><g class="node" transform="translate(59.16217344375195,163.78773083912824)"><circle class="outline" cx="0" cy="0" r="25" fill="#ECB5C9" stroke="#da7298" stroke-width="2px"/><text text-anchor="middle" pointer-events="none" font-family="sans-serif" dy="1.5625" font-size="25" fill="#2A2C34"/><text text-anchor="middle" pointer-events="none" x="0" y="5" font-size="10px" fill="#2A2C34" font-family="sans-serif"> 11/29/20…</text></g><g class="node" transform="translate(-72.01639519222685,287.3660617168923)"><circle class="outline" cx="0" cy="0" r="25" fill="#ECB5C9" stroke="#da7298" stroke-width="2px"/><text text-anchor="middle" pointer-events="none" font-family="sans-serif" dy="1.5625" font-size="25" fill="#2A2C34"/><text text-anchor="middle" pointer-events="none" x="0" y="5" font-size="10px" fill="#2A2C34" font-family="sans-serif"> 11/29/20…</text></g><g class="node" transform="translate(266.95809522840653,-134.8433294494141)"><circle class="outline" cx="0" cy="0" r="25" fill="#4C8EDA" stroke="#2870c2" stroke-width="2px"/><text text-anchor="middle" pointer-events="none" font-family="sans-serif" dy="1.5625" font-size="25" fill="#FFFFFF"/><text text-anchor="middle" pointer-events="none" x="0" y="5" font-size="10px" fill="#FFFFFF" font-family="sans-serif"> LAS</text></g><g class="node" transform="translate(430.8761770638643,-181.93221300395155)"><circle class="outline" cx="0" cy="0" r="25" fill="#ECB5C9" stroke="#da7298" stroke-width="2px"/><text text-anchor="middle" pointer-events="none" font-family="sans-serif" dy="1.5625" font-size="25" fill="#2A2C34"/><text text-anchor="middle" pointer-events="none" x="0" y="5" font-size="10px" fill="#2A2C34" font-family="sans-serif"> 11/29/20…</text></g><g class="node" transform="translate(347.1306429266837,-228.39148386052113)"><circle class="outline" cx="0" cy="0" r="25" fill="#4C8EDA" stroke="#2870c2" stroke-width="2px"/><text text-anchor="middle" pointer-events="none" font-family="sans-serif" dy="1.5625" font-size="25" fill="#FFFFFF"/><text text-anchor="middle" pointer-events="none" x="0" y="5" font-size="10px" fill="#FFFFFF" font-family="sans-serif"> DEN</text></g><g class="node" transform="translate(215.59697654925935,-347.5310143333931)"><circle class="outline" cx="0" cy="0" r="25" fill="#ECB5C9" stroke="#da7298" stroke-width="2px"/><text text-anchor="middle" pointer-events="none" font-family="sans-serif" dy="1.5625" font-size="25" fill="#2A2C34"/><text text-anchor="middle" pointer-events="none" x="0" y="5" font-size="10px" fill="#2A2C34" font-family="sans-serif"> 11/29/20…</text></g><g class="node" transform="translate(39.27207118397769,-404.15594804313747)"><circle class="outline" cx="0" cy="0" r="25" fill="#4C8EDA" stroke="#2870c2" stroke-width="2px"/><text text-anchor="middle" pointer-events="none" font-family="sans-serif" dy="1.5625" font-size="25" fill="#FFFFFF"/><text text-anchor="middle" pointer-events="none" x="0" y="5" font-size="10px" fill="#FFFFFF" font-family="sans-serif"> MSP</text></g><g class="node" transform="translate(173.0170537609415,-488.25897697759456)"><circle class="outline" cx="0" cy="0" r="25" fill="#ECB5C9" stroke="#da7298" stroke-width="2px"/><text text-anchor="middle" pointer-events="none" font-family="sans-serif" dy="1.5625" font-size="25" fill="#2A2C34"/><text text-anchor="middle" pointer-events="none" x="0" y="5" font-size="10px" fill="#2A2C34" font-family="sans-serif"> 11/23/20…</text></g><g class="node" transform="translate(56.709423644348504,-515.5905197389816)"><circle class="outline" cx="0" cy="0" r="25" fill="#ECB5C9" stroke="#da7298" stroke-width="2px"/><text text-anchor="middle" pointer-events="none" font-family="sans-serif" dy="1.5625" font-size="25" fill="#2A2C34"/><text text-anchor="middle" pointer-events="none" x="0" y="5" font-size="10px" fill="#2A2C34" font-family="sans-serif"> 11/20/20…</text></g><g class="node" transform="translate(113.8705924779,-497.21145616532687)"><circle class="outline" cx="0" cy="0" r="25" fill="#ECB5C9" stroke="#da7298" stroke-width="2px"/><text text-anchor="middle" pointer-events="none" font-family="sans-serif" dy="1.5625" font-size="25" fill="#2A2C34"/><text text-anchor="middle" pointer-events="none" x="0" y="5" font-size="10px" fill="#2A2C34" font-family="sans-serif"> 11/25/20…</text></g><g class="node" transform="translate(-12.338489000219713,-514.834784747553)"><circle class="outline" cx="0" cy="0" r="25" fill="#ECB5C9" stroke="#da7298" stroke-width="2px"/><text text-anchor="middle" pointer-events="none" font-family="sans-serif" dy="1.5625" font-size="25" fill="#2A2C34"/><text text-anchor="middle" pointer-events="none" x="0" y="5" font-size="10px" fill="#2A2C34" font-family="sans-serif"> 11/11/20…</text></g><g class="node" transform="translate(21.49044923063681,-564.0547541086991)"><circle class="outline" cx="0" cy="0" r="25" fill="#ECB5C9" stroke="#da7298" stroke-width="2px"/><text text-anchor="middle" pointer-events="none" font-family="sans-serif" dy="1.5625" font-size="25" fill="#2A2C34"/><text text-anchor="middle" pointer-events="none" x="0" y="5" font-size="10px" fill="#2A2C34" font-family="sans-serif"> 11/16/20…</text></g><g class="node" transform="translate(337.39980395657904,32.42442269266003)"><circle class="outline" cx="0" cy="0" r="25" fill="#4C8EDA" stroke="#2870c2" stroke-width="2px"/><text text-anchor="middle" pointer-events="none" font-family="sans-serif" dy="1.5625" font-size="25" fill="#FFFFFF"/><text text-anchor="middle" pointer-events="none" x="0" y="5" font-size="10px" fill="#FFFFFF" font-family="sans-serif"> SMF</text></g><g class="node" transform="translate(431.8803613677187,-89.12775938060261)"><circle class="outline" cx="0" cy="0" r="25" fill="#ECB5C9" stroke="#da7298" stroke-width="2px"/><text text-anchor="middle" pointer-events="none" font-family="sans-serif" dy="1.5625" font-size="25" fill="#2A2C34"/><text text-anchor="middle" pointer-events="none" x="0" y="5" font-size="10px" fill="#2A2C34" font-family="sans-serif"> 11/30/20…</text></g><g class="node" transform="translate(77.47249290812384,-130.83022377695647)"><circle class="outline" cx="0" cy="0" r="25" fill="#ECB5C9" stroke="#da7298" stroke-width="2px"/><text text-anchor="middle" pointer-events="none" font-family="sans-serif" dy="1.5625" font-size="25" fill="#2A2C34"/><text text-anchor="middle" pointer-events="none" x="0" y="5" font-size="10px" fill="#2A2C34" font-family="sans-serif"> 11/29/20…</text></g><g class="node" transform="translate(-79.79142944089885,-114.74963608027696)"><circle class="outline" cx="0" cy="0" r="25" fill="#4C8EDA" stroke="#2870c2" stroke-width="2px"/><text text-anchor="middle" pointer-events="none" font-family="sans-serif" dy="1.5625" font-size="25" fill="#FFFFFF"/><text text-anchor="middle" pointer-events="none" x="0" y="5" font-size="10px" fill="#FFFFFF" font-family="sans-serif"> ORD</text></g><g class="node" transform="translate(-48.25962763333469,-296.66660155614295)"><circle class="outline" cx="0" cy="0" r="25" fill="#ECB5C9" stroke="#da7298" stroke-width="2px"/><text text-anchor="middle" pointer-events="none" font-family="sans-serif" dy="1.5625" font-size="25" fill="#2A2C34"/><text text-anchor="middle" pointer-events="none" x="0" y="5" font-size="10px" fill="#2A2C34" font-family="sans-serif"> 11/29/20…</text></g><g class="node" transform="translate(-106.51083604180626,-284.00617227833686)"><circle class="outline" cx="0" cy="0" r="25" fill="#ECB5C9" stroke="#da7298" stroke-width="2px"/><text text-anchor="middle" pointer-events="none" font-family="sans-serif" dy="1.5625" font-size="25" fill="#2A2C34"/><text text-anchor="middle" pointer-events="none" x="0" y="5" font-size="10px" fill="#2A2C34" font-family="sans-serif"> 11/29/20…</text></g><g class="node" transform="translate(87.22960998480296,-189.76600331495342)"><circle class="outline" cx="0" cy="0" r="25" fill="#ECB5C9" stroke="#da7298" stroke-width="2px"/><text text-anchor="middle" pointer-events="none" font-family="sans-serif" dy="1.5625" font-size="25" fill="#2A2C34"/><text text-anchor="middle" pointer-events="none" x="0" y="5" font-size="10px" fill="#2A2C34" font-family="sans-serif"> 11/29/20…</text></g><g class="node" transform="translate(-5.062400460059614,-255.4507469480459)"><circle class="outline" cx="0" cy="0" r="25" fill="#ECB5C9" stroke="#da7298" stroke-width="2px"/><text text-anchor="middle" pointer-events="none" font-family="sans-serif" dy="1.5625" font-size="25" fill="#2A2C34"/><text text-anchor="middle" pointer-events="none" x="0" y="5" font-size="10px" fill="#2A2C34" font-family="sans-serif"> 11/30/20…</text></g><g class="node" transform="translate(8.21172992278068,89.93157670049584)"><circle class="outline" cx="0" cy="0" r="25" fill="#ECB5C9" stroke="#da7298" stroke-width="2px"/><text text-anchor="middle" pointer-events="none" font-family="sans-serif" dy="1.5625" font-size="25" fill="#2A2C34"/><text text-anchor="middle" pointer-events="none" x="0" y="5" font-size="10px" fill="#2A2C34" font-family="sans-serif"> 11/30/20…</text></g><g class="node" transform="translate(58.43109147060316,57.85721995809344)"><circle class="outline" cx="0" cy="0" r="25" fill="#ECB5C9" stroke="#da7298" stroke-width="2px"/><text text-anchor="middle" pointer-events="none" font-family="sans-serif" dy="1.5625" font-size="25" fill="#2A2C34"/><text text-anchor="middle" pointer-events="none" x="0" y="5" font-size="10px" fill="#2A2C34" font-family="sans-serif"> 11/29/20…</text></g><g class="node" transform="translate(123.43287416906682,-24.150169429682126)"><circle class="outline" cx="0" cy="0" r="25" fill="#ECB5C9" stroke="#da7298" stroke-width="2px"/><text text-anchor="middle" pointer-events="none" font-family="sans-serif" dy="1.5625" font-size="25" fill="#2A2C34"/><text text-anchor="middle" pointer-events="none" x="0" y="5" font-size="10px" fill="#2A2C34" font-family="sans-serif"> 11/30/20…</text></g><g class="node" transform="translate(139.0449727099689,-81.6651261906942)"><circle class="outline" cx="0" cy="0" r="25" fill="#ECB5C9" stroke="#da7298" stroke-width="2px"/><text text-anchor="middle" pointer-events="none" font-family="sans-serif" dy="1.5625" font-size="25" fill="#2A2C34"/><text text-anchor="middle" pointer-events="none" x="0" y="5" font-size="10px" fill="#2A2C34" font-family="sans-serif"> 11/29/20…</text></g><g class="node" transform="translate(-307.7586079144502,65.29995407203573)"><circle class="outline" cx="0" cy="0" r="25" fill="#4C8EDA" stroke="#2870c2" stroke-width="2px"/><text text-anchor="middle" pointer-events="none" font-family="sans-serif" dy="1.5625" font-size="25" fill="#FFFFFF"/><text text-anchor="middle" pointer-events="none" x="0" y="5" font-size="10px" fill="#FFFFFF" font-family="sans-serif"> IAH</text></g><g class="node" transform="translate(-241.78588714092078,-110.22333432166833)"><circle class="outline" cx="0" cy="0" r="25" fill="#ECB5C9" stroke="#da7298" stroke-width="2px"/><text text-anchor="middle" pointer-events="none" font-family="sans-serif" dy="1.5625" font-size="25" fill="#2A2C34"/><text text-anchor="middle" pointer-events="none" x="0" y="5" font-size="10px" fill="#2A2C34" font-family="sans-serif"> 11/29/20…</text></g><g class="node" transform="translate(-227.02777635267242,-52.18200758603453)"><circle class="outline" cx="0" cy="0" r="25" fill="#ECB5C9" stroke="#da7298" stroke-width="2px"/><text text-anchor="middle" pointer-events="none" font-family="sans-serif" dy="1.5625" font-size="25" fill="#2A2C34"/><text text-anchor="middle" pointer-events="none" x="0" y="5" font-size="10px" fill="#2A2C34" font-family="sans-serif"> 11/29/20…</text></g><g class="node" transform="translate(-284.5201880991028,-68.48165770643293)"><circle class="outline" cx="0" cy="0" r="25" fill="#ECB5C9" stroke="#da7298" stroke-width="2px"/><text text-anchor="middle" pointer-events="none" font-family="sans-serif" dy="1.5625" font-size="25" fill="#2A2C34"/><text text-anchor="middle" pointer-events="none" x="0" y="5" font-size="10px" fill="#2A2C34" font-family="sans-serif"> 11/30/20…</text></g><g class="node" transform="translate(-4.743576534350255,27.781301086170174)"><circle class="outline" cx="0" cy="0" r="25" fill="#4C8EDA" stroke="#2870c2" stroke-width="2px"/><text text-anchor="middle" pointer-events="none" font-family="sans-serif" dy="1.5625" font-size="25" fill="#FFFFFF"/><text text-anchor="middle" pointer-events="none" x="0" y="5" font-size="10px" fill="#FFFFFF" font-family="sans-serif"> EWR</text></g><g class="node" transform="translate(-91.726588341611,-18.483866134103703)"><circle class="outline" cx="0" cy="0" r="25" fill="#ECB5C9" stroke="#da7298" stroke-width="2px"/><text text-anchor="middle" pointer-events="none" font-family="sans-serif" dy="1.5625" font-size="25" fill="#2A2C34"/><text text-anchor="middle" pointer-events="none" x="0" y="5" font-size="10px" fill="#2A2C34" font-family="sans-serif"> 11/30/20…</text></g><g class="node" transform="translate(-148.38594904691752,-37.434258099447845)"><circle class="outline" cx="0" cy="0" r="25" fill="#ECB5C9" stroke="#da7298" stroke-width="2px"/><text text-anchor="middle" pointer-events="none" font-family="sans-serif" dy="1.5625" font-size="25" fill="#2A2C34"/><text text-anchor="middle" pointer-events="none" x="0" y="5" font-size="10px" fill="#2A2C34" font-family="sans-serif"> 11/30/20…</text></g><g class="node" transform="translate(-245.07856618717997,194.97472483318776)"><circle class="outline" cx="0" cy="0" r="25" fill="#4C8EDA" stroke="#2870c2" stroke-width="2px"/><text text-anchor="middle" pointer-events="none" font-family="sans-serif" dy="1.5625" font-size="25" fill="#FFFFFF"/><text text-anchor="middle" pointer-events="none" x="0" y="5" font-size="10px" fill="#FFFFFF" font-family="sans-serif"> BOS</text></g><g class="node" transform="translate(-175.20916236934835,50.48805885205926)"><circle class="outline" cx="0" cy="0" r="25" fill="#ECB5C9" stroke="#da7298" stroke-width="2px"/><text text-anchor="middle" pointer-events="none" font-family="sans-serif" dy="1.5625" font-size="25" fill="#2A2C34"/><text text-anchor="middle" pointer-events="none" x="0" y="5" font-size="10px" fill="#2A2C34" font-family="sans-serif"> 11/30/20…</text></g><g class="node" transform="translate(-227.77757855427396,21.914453900045313)"><circle class="outline" cx="0" cy="0" r="25" fill="#ECB5C9" stroke="#da7298" stroke-width="2px"/><text text-anchor="middle" pointer-events="none" font-family="sans-serif" dy="1.5625" font-size="25" fill="#2A2C34"/><text text-anchor="middle" pointer-events="none" x="0" y="5" font-size="10px" fill="#2A2C34" font-family="sans-serif"> 11/29/20…</text></g><g class="node" transform="translate(198.66837464709073,-104.72287601670604)"><circle class="outline" cx="0" cy="0" r="25" fill="#ECB5C9" stroke="#da7298" stroke-width="2px"/><text text-anchor="middle" pointer-events="none" font-family="sans-serif" dy="1.5625" font-size="25" fill="#2A2C34"/><text text-anchor="middle" pointer-events="none" x="0" y="5" font-size="10px" fill="#2A2C34" font-family="sans-serif"> 11/30/20…</text></g></g></svg>