<svg xmlns="http://www.w3.org/2000/svg" width="403.009033203125" height="403.2356262207031" viewBox="-95.24111938476562 -89.96894073486328 403.009033203125 403.2356262207031"><title>Neo4j Graph Visualization</title><desc>Created using Neo4j (http://www.neo4j.com/)</desc><g class="layer relationships"><g class="relationship" transform="translate(278.76792360809316 94.48176573538493) rotate(245.49919645254812)"><path class="outline" fill="#A5ABB6" stroke="none" d="M 25 0.5 L 26.396960782674583 0.5 L 26.396960782674583 -0.5 L 25 -0.5 Z M 75.06883578267458 0.5 L 76.46579656534917 0.5 L 76.46579656534917 3.5 L 83.46579656534917 0 L 76.46579656534917 -3.5 L 76.46579656534917 -0.5 L 75.06883578267458 -0.5 Z"/><text text-anchor="middle" pointer-events="none" font-size="8px" fill="#000000" x="50.73289828267458" y="3" transform="rotate(180 50.73289828267458 0)" font-family="sans-serif">DESTINA…</text></g><g class="relationship" transform="translate(140.3001699048659 -60.968942314218204) rotate(391.26019536070686)"><path class="outline" fill="#A5ABB6" stroke="none" d="M 25 0.5 L 33.959257091601174 0.5 L 33.959257091601174 -0.5 L 25 -0.5 Z M 68.40456959160117 0.5 L 77.36382668320235 0.5 L 77.36382668320235 3.5 L 84.36382668320235 0 L 77.36382668320235 -3.5 L 77.36382668320235 -0.5 L 68.40456959160117 -0.5 Z"/><text text-anchor="middle" pointer-events="none" font-size="8px" fill="#000000" x="51.181913341601174" y="3" font-family="sans-serif">ORIGIN</text></g><g class="relationship" transform="translate(140.3001699048659 -60.968942314218204) rotate(537.2568609937603)"><path class="outline" fill="#A5ABB6" stroke="none" d="M 25 0.5 L 27.014043417910315 0.5 L 27.014043417910315 -0.5 L 25 -0.5 Z M 75.68591841791032 0.5 L 77.69996183582063 0.5 L 77.69996183582063 3.5 L 84.69996183582063 0 L 77.69996183582063 -3.5 L 77.69996183582063 -0.5 L 75.68591841791032 -0.5 Z"/><text text-anchor="middle" pointer-events="none" font-size="8px" fill="#000000" x="51.349980917910315" y="3" transform="rotate(180 51.349980917910315 0)" font-family="sans-serif">DESTINA…</text></g><g class="relationship" transform="translate(-49.868383111604714 17.14556387572845) rotate(317.88360703611426)"><path class="outline" fill="#A5ABB6" stroke="none" d="M 25 0.5 L 26.488700345774546 0.5 L 26.488700345774546 -0.5 L 25 -0.5 Z M 75.16057534577455 0.5 L 76.6492756915491 0.5 L 76.6492756915491 3.5 L 83.6492756915491 0 L 76.6492756915491 -3.5 L 76.6492756915491 -0.5 L 75.16057534577455 -0.5 Z"/><text text-anchor="middle" pointer-events="none" font-size="8px" fill="#000000" x="50.82463784577455" y="3" font-family="sans-serif">DESTINA…</text></g><g class="relationship" transform="translate(-49.868383111604714 17.14556387572845) rotate(458.61488956364065)"><path class="outline" fill="#A5ABB6" stroke="none" d="M 25 0.5 L 33.92881188593077 0.5 L 33.92881188593077 -0.5 L 25 -0.5 Z M 68.37412438593077 0.5 L 77.30293627186154 0.5 L 77.30293627186154 3.5 L 84.30293627186154 0 L 77.30293627186154 -3.5 L 77.30293627186154 -0.5 L 68.37412438593077 -0.5 Z"/><text text-anchor="middle" pointer-events="none" font-size="8px" fill="#000000" x="51.15146813593077" y="3" transform="rotate(180 51.15146813593077 0)" font-family="sans-serif">ORIGIN</text></g><g class="relationship" transform="translate(-29.004573900336986 226.4928285893948) rotate(249.81312231828173)"><path class="outline" fill="#A5ABB6" stroke="none" d="M 25 0.5 L 33.230333736008824 0.5 L 33.230333736008824 -0.5 L 25 -0.5 Z M 67.67564623600882 0.5 L 75.90597997201765 0.5 L 75.90597997201765 3.5 L 82.90597997201765 0 L 75.90597997201765 -3.5 L 75.90597997201765 -0.5 L 67.67564623600882 -0.5 Z"/><text text-anchor="middle" pointer-events="none" font-size="8px" fill="#000000" x="50.452989986008824" y="3" transform="rotate(180 50.452989986008824 0)" font-family="sans-serif">ORIGIN</text></g><g class="relationship" transform="translate(-29.004573900336986 226.4928285893948) rotate(392.5481784887487)"><path class="outline" fill="#A5ABB6" stroke="none" d="M 25 0.5 L 25.856390589441844 0.5 L 25.856390589441844 -0.5 L 25 -0.5 Z M 74.52826558944184 0.5 L 75.38465617888369 0.5 L 75.38465617888369 3.5 L 82.38465617888369 0 L 75.38465617888369 -3.5 L 75.38465617888369 -0.5 L 74.52826558944184 -0.5 Z"/><text text-anchor="middle" pointer-events="none" font-size="8px" fill="#000000" x="50.192328089441844" y="3" font-family="sans-serif">DESTINA…</text></g><g class="relationship" transform="translate(278.76792360809316 94.48176573538493) rotate(459.94646165055997)"><path class="outline" fill="#A5ABB6" stroke="none" d="M 25 0.5 L 33.1067533682702 0.5 L 33.1067533682702 -0.5 L 25 -0.5 Z M 67.5520658682702 0.5 L 75.6588192365404 0.5 L 75.6588192365404 3.5 L 82.6588192365404 0 L 75.6588192365404 -3.5 L 75.6588192365404 -0.5 L 67.5520658682702 -0.5 Z"/><text text-anchor="middle" pointer-events="none" font-size="8px" fill="#000000" x="50.3294096182702" y="3" transform="rotate(180 50.3294096182702 0)" font-family="sans-serif">ORIGIN</text></g></g><g class="layer nodes"><g class="node" transform="translate(61.51417803831676,284.2666975106081)"><circle class="outline" cx="0" cy="0" r="25" fill="#4C8EDA" stroke="#2870c2" stroke-width="2px"/><text text-anchor="middle" pointer-events="none" font-family="sans-serif" dy="1.5625" font-size="25" fill="#FFFFFF"/><text text-anchor="middle" pointer-events="none" x="0" y="5" font-size="10px" fill="#FFFFFF" font-family="sans-serif"> DAY</text></g><g class="node" transform="translate(260.17224427109136,200.52242807489262)"><circle class="outline" cx="0" cy="0" r="25" fill="#4C8EDA" stroke="#2870c2" stroke-width="2px"/><text text-anchor="middle" pointer-events="none" font-family="sans-serif" dy="1.5625" font-size="25" fill="#FFFFFF"/><text text-anchor="middle" pointer-events="none" x="0" y="5" font-size="10px" fill="#FFFFFF" font-family="sans-serif"> LAX</text></g><g class="node" transform="translate(278.76792360809316,94.48176573538493)"><circle class="outline" cx="0" cy="0" r="25" fill="#ECB5C9" stroke="#da7298" stroke-width="2px"/><text text-anchor="middle" pointer-events="none" font-family="sans-serif" dy="1.5625" font-size="25" fill="#2A2C34"/><text text-anchor="middle" pointer-events="none" x="0" y="5" font-size="10px" fill="#2A2C34" font-family="sans-serif"> 11/29/20…</text></g><g class="node" transform="translate(233.78650649915113,-4.217277519487042)"><circle class="outline" cx="0" cy="0" r="25" fill="#4C8EDA" stroke="#2870c2" stroke-width="2px"/><text text-anchor="middle" pointer-events="none" font-family="sans-serif" dy="1.5625" font-size="25" fill="#FFFFFF"/><text text-anchor="middle" pointer-events="none" x="0" y="5" font-size="10px" fill="#FFFFFF" font-family="sans-serif"> LAS</text></g><g class="node" transform="translate(140.3001699048659,-60.968942314218204)"><circle class="outline" cx="0" cy="0" r="25" fill="#ECB5C9" stroke="#da7298" stroke-width="2px"/><text text-anchor="middle" pointer-events="none" font-family="sans-serif" dy="1.5625" font-size="25" fill="#2A2C34"/><text text-anchor="middle" pointer-events="none" x="0" y="5" font-size="10px" fill="#2A2C34" font-family="sans-serif"> 11/29/20…</text></g><g class="node" transform="translate(30.725910561391313,-55.718864590081346)"><circle class="outline" cx="0" cy="0" r="25" fill="#4C8EDA" stroke="#2870c2" stroke-width="2px"/><text text-anchor="middle" pointer-events="none" font-family="sans-serif" dy="1.5625" font-size="25" fill="#FFFFFF"/><text text-anchor="middle" pointer-events="none" x="0" y="5" font-size="10px" fill="#FFFFFF" font-family="sans-serif"> DEN</text></g><g class="node" transform="translate(-49.868383111604714,17.14556387572845)"><circle class="outline" cx="0" cy="0" r="25" fill="#ECB5C9" stroke="#da7298" stroke-width="2px"/><text text-anchor="middle" pointer-events="none" font-family="sans-serif" dy="1.5625" font-size="25" fill="#2A2C34"/><text text-anchor="middle" pointer-events="none" x="0" y="5" font-size="10px" fill="#2A2C34" font-family="sans-serif"> 11/29/20…</text></g><g class="node" transform="translate(-66.24112006465937,125.2152884164929)"><circle class="outline" cx="0" cy="0" r="25" fill="#4C8EDA" stroke="#2870c2" stroke-width="2px"/><text text-anchor="middle" pointer-events="none" font-family="sans-serif" dy="1.5625" font-size="25" fill="#FFFFFF"/><text text-anchor="middle" pointer-events="none" x="0" y="5" font-size="10px" fill="#FFFFFF" font-family="sans-serif"> MSP</text></g><g class="node" transform="translate(-29.004573900336986,226.4928285893948)"><circle class="outline" cx="0" cy="0" r="25" fill="#ECB5C9" stroke="#da7298" stroke-width="2px"/><text text-anchor="middle" pointer-events="none" font-family="sans-serif" dy="1.5625" font-size="25" fill="#2A2C34"/><text text-anchor="middle" pointer-events="none" x="0" y="5" font-size="10px" fill="#2A2C34" font-family="sans-serif"> 11/23/20…</text></g></g></svg>