<svg xmlns="http://www.w3.org/2000/svg" width="162.4200439453125" height="242.5933837890625" viewBox="0.048755645751953125 -20.39110565185547 162.4200439453125 242.5933837890625"><title>Neo4j Graph Visualization</title><desc>Created using Neo4j (http://www.neo4j.com/)</desc><g class="layer relationships"><g class="relationship" transform="translate(133.468798825674 8.608895307513688) rotate(520.43622190535)"><path class="outline" fill="#A5ABB6" stroke="none" d="M 21.40063509461097,12.933012701892217 L 21.90063509461097,12.06698729810778 A 59.92173838640147 59.92173838640147 0 0 0 23.462609726852282,12.93797707410581 L 22.98867663803181,13.81853793362722 A 60.92173838640147 60.92173838640147 0 0 1 21.40063509461097,12.933012701892217 Z M 77.37406498625101,15.49563521390806 L 76.9552890062121,14.58754563763133 A 59.92173838640147 59.92173838640147 0 0 0 78.56796265170385,13.814453369661473 L 77.23089571657871,11.128889739621206 L 85.057122277652,11.142224459376186 L 80.35071856520403,17.39520487638183 L 79.0136516300789,14.709641246341564 A 60.92173838640147 60.92173838640147 0 0 1 77.37406498625101,15.49563521390806"/><text text-anchor="middle" pointer-events="none" font-size="8px" fill="#000000" x="49.99914769197333" y="23.56626982323659" transform="rotate(180 49.99914769197333 20.56626982323659)" font-family="sans-serif">PublicTrans…</text></g><g class="relationship" transform="translate(32.234378739581615 44.58475260789493) rotate(451.7107440648815)"><path class="outline" fill="#A5ABB6" stroke="none" d="M 25 0.5 L 40.1859916288505 0.5 L 40.1859916288505 -0.5 L 25 -0.5 Z M 59.5219291288505 0.5 L 74.707920757701 0.5 L 74.707920757701 3.5 L 81.707920757701 0 L 74.707920757701 -3.5 L 74.707920757701 -0.5 L 59.5219291288505 -0.5 Z"/><text text-anchor="middle" pointer-events="none" font-size="8px" fill="#000000" x="49.8539603788505" y="3" transform="rotate(180 49.8539603788505 0)" font-family="sans-serif">trek</text></g><g class="relationship" transform="translate(29.048754584075915 151.24511146333688) rotate(382.99006326797496)"><path class="outline" fill="#A5ABB6" stroke="none" d="M 25 0.5 L 40.544545596249705 0.5 L 40.544545596249705 -0.5 L 25 -0.5 Z M 59.880483096249705 0.5 L 75.42502869249941 0.5 L 75.42502869249941 3.5 L 82.42502869249941 0 L 75.42502869249941 -3.5 L 75.42502869249941 -0.5 L 59.880483096249705 -0.5 Z"/><text text-anchor="middle" pointer-events="none" font-size="8px" fill="#000000" x="50.212514346249705" y="3" font-family="sans-serif">trek</text></g><g class="relationship" transform="translate(133.468798825674 8.608895307513688) rotate(520.43622190535)"><path class="outline" fill="#A5ABB6" stroke="none" d="M 25 0.5 L 40.55044084732711 0.5 L 40.55044084732711 -0.5 L 25 -0.5 Z M 59.88637834732711 0.5 L 75.43681919465422 0.5 L 75.43681919465422 3.5 L 82.43681919465422 0 L 75.43681919465422 -3.5 L 75.43681919465422 -0.5 L 59.88637834732711 -0.5 Z"/><text text-anchor="middle" pointer-events="none" font-size="8px" fill="#000000" x="50.21840959732711" y="3" transform="rotate(180 50.21840959732711 0)" font-family="sans-serif">trek</text></g><g class="relationship" transform="translate(133.468798825674 8.608895307513688) rotate(520.43622190535)"><path class="outline" fill="#A5ABB6" stroke="none" d="M 21.40063509461097,-12.933012701892217 L 21.90063509461097,-12.06698729810778 A 59.92173838640147 59.92173838640147 0 0 1 39.19574405514175,-18.741091284319957 L 38.98437234641402,-19.718497034635305 A 60.92173838640147 60.92173838640147 0 0 0 21.40063509461097,-12.933012701892217 Z M 61.0452305454184,-20.398793827761416 L 60.894484251880975,-19.41022134433659 A 59.92173838640147 59.92173838640147 0 0 1 78.56796265170385,-13.814453369661473 L 77.23089571657871,-11.128889739621206 L 85.057122277652,-11.142224459376186 L 80.35071856520403,-17.39520487638183 L 79.0136516300789,-14.709641246341564 A 60.92173838640147 60.92173838640147 0 0 0 61.0452305454184,-20.398793827761416"/><text text-anchor="middle" pointer-events="none" font-size="8px" fill="#000000" x="49.99914769197332" y="-17.56626982323659" transform="rotate(180 49.99914769197332 -20.56626982323659)" font-family="sans-serif">road</text></g></g><g class="layer nodes"><g class="node" transform="translate(133.468798825674,8.608895307513688)"><circle class="outline" cx="0" cy="0" r="25" fill="#D9C8AE" stroke="#c0a378" stroke-width="2px"/><text text-anchor="middle" pointer-events="none" font-family="sans-serif" dy="1.5625" font-size="25" fill="#2A2C34"/><text text-anchor="middle" pointer-events="none" x="0" y="5" font-size="10px" fill="#2A2C34" font-family="sans-serif"> Darjeeling</text></g><g class="node" transform="translate(127.94129293900102,193.2022639799697)"><circle class="outline" cx="0" cy="0" r="25" fill="#8DCC93" stroke="#5db665" stroke-width="2px"/><text text-anchor="middle" pointer-events="none" font-family="sans-serif" dy="1.5625" font-size="25" fill="#2A2C34"/><text text-anchor="middle" pointer-events="none" x="0" y="5" font-size="10px" fill="#2A2C34" font-family="sans-serif"> Sandak…</text></g><g class="node" transform="translate(32.234378739581615,44.58475260789493)"><circle class="outline" cx="0" cy="0" r="25" fill="#D9C8AE" stroke="#c0a378" stroke-width="2px"/><text text-anchor="middle" pointer-events="none" font-family="sans-serif" dy="1.5625" font-size="25" fill="#2A2C34"/><text text-anchor="middle" pointer-events="none" x="0" y="5" font-size="10px" fill="#2A2C34" font-family="sans-serif"> Rimbik</text></g><g class="node" transform="translate(29.048754584075915,151.24511146333688)"><circle class="outline" cx="0" cy="0" r="25" fill="#F16667" stroke="#eb2728" stroke-width="2px"/><text text-anchor="middle" pointer-events="none" font-family="sans-serif" dy="1.5625" font-size="25" fill="#FFFFFF"/><text text-anchor="middle" pointer-events="none" x="0" y="5" font-size="10px" fill="#FFFFFF" font-family="sans-serif"> BhikeBh…</text></g></g></svg>