<svg xmlns="http://www.w3.org/2000/svg" width="386.4893493652344" height="354.88604736328125" viewBox="-73.63735961914062 -76.92372131347656 386.4893493652344 354.88604736328125"><title>Neo4j Graph Visualization</title><desc>Created using Neo4j (http://www.neo4j.com/)</desc><g class="layer relationships"><g class="relationship" transform="translate(26.051540650511726 -45.70898502043894) rotate(386.8760080717559)"><path class="outline" fill="#A5ABB6" stroke="none" d="M 24.018736134675446,-6.953439040707552 L 24.277555179777966,-5.987513214418485 A 173.10139708916694 173.10139708916694 0 0 1 55.99534107873142,-11.39059842457101 L 55.919754442103425,-12.387737662773617 A 174.10139708916694 174.10139708916694 0 0 0 24.018736134675446,-6.953439040707552 Z M 77.9784277099268,-12.658223649554259 L 77.92731419574254,-11.659530799540931 A 173.10139708916694 173.10139708916694 0 0 1 109.76804997316906,-7.035807486870733 L 109.06288137527667,-4.119862142981984 L 116.68945054189155,-5.876404982436612 L 110.70827477035891,-10.923734612055732 L 110.00310617246653,-8.007789268166983 A 174.10139708916694 174.10139708916694 0 0 0 77.9784277099268,-12.658223649554259"/><text text-anchor="middle" pointer-events="none" font-size="8px" fill="#000000" x="66.95093321602388" y="-9.372750453666356" font-family="sans-serif">road</text></g><g class="relationship" transform="translate(151.8118777358316 18.02667492159908) rotate(378.11845437246893)"><path class="outline" fill="#A5ABB6" stroke="none" d="M 21.40063509461097,-12.933012701892217 L 21.90063509461097,-12.06698729810778 A 92.25555985608077 92.25555985608077 0 0 1 43.0118571042372,-20.97031617175574 L 42.740691247594626,-21.93284880922384 A 93.25555985608077 93.25555985608077 0 0 0 21.40063509461097,-12.933012701892217 Z M 88.95562453018266,-23.048451060598126 L 88.73121743274173,-22.073955573375045 A 92.25555985608077 92.25555985608077 0 0 1 110.24744251779178,-14.199629071284662 L 108.87454875742648,-11.532202835612903 L 116.7002526944201,-11.440781336377572 L 112.07796753161219,-17.756197385513673 L 110.70507377124689,-15.088771149841914 A 93.25555985608077 93.25555985608077 0 0 0 88.95562453018266,-23.048451060598126"/><text text-anchor="middle" pointer-events="none" font-size="8px" fill="#000000" x="65.79000054948915" y="-21.8998755858359" font-family="sans-serif">twowheeler</text></g><g class="relationship" transform="translate(283.8519832912919 61.23111090566532) rotate(181.13104420928516)"><path class="outline" fill="#A5ABB6" stroke="none" d="M 21.40063509461097,12.933012701892217 L 21.90063509461097,12.06698729810778 A 40.4164562544569 40.4164562544569 0 0 0 23.263130367932558,12.819026591371653 L 22.79684176669408,13.703659249798342 A 41.4164562544569 41.4164562544569 0 0 1 21.40063509461097,12.933012701892217 Z M 58.66596177327692,15.028256336358766 L 58.266190763181,14.111641292031607 A 40.4164562544569 40.4164562544569 0 0 0 59.68044286830286,13.462143446311622 L 58.376153877513936,10.760508713690127 L 66.2016387428845,10.869074923241048 L 61.41949485602142,17.064323089806944 L 60.1152058652325,14.362688357185451 A 41.4164562544569 41.4164562544569 0 0 1 58.66596177327692,15.028256336358766"/><text text-anchor="middle" pointer-events="none" font-size="8px" fill="#000000" x="40.59890420730375" y="20.95389485305828" transform="rotate(180 40.59890420730375 17.95389485305828)" font-family="sans-serif">twowh…</text></g><g class="relationship" transform="translate(195.15400672683884 59.479945865264305) rotate(464.5840220524799)"><path class="outline" fill="#A5ABB6" stroke="none" d="M 25 0.5 L 51.46205342301121 0.5 L 51.46205342301121 -0.5 L 25 -0.5 Z M 70.79799092301121 0.5 L 97.26004434602243 0.5 L 97.26004434602243 3.5 L 104.26004434602243 0 L 97.26004434602243 -3.5 L 97.26004434602243 -0.5 L 70.79799092301121 -0.5 Z"/><text text-anchor="middle" pointer-events="none" font-size="8px" fill="#000000" x="61.13002217301121" y="3" transform="rotate(180 61.13002217301121 0)" font-family="sans-serif">trek</text></g><g class="relationship" transform="translate(26.051540650511726 -45.70898502043894) rotate(386.8760080717559)"><path class="outline" fill="#A5ABB6" stroke="none" d="M 24.018736134675446,6.953439040707552 L 24.277555179777966,5.987513214418485 A 173.10139708916694 173.10139708916694 0 0 0 57.325937383830336,11.486307048965188 L 57.258037550009675,12.483999192147195 A 174.10139708916694 174.10139708916694 0 0 1 24.018736134675446,6.953439040707552 Z M 76.63818660360901,12.721640807174197 L 76.59477113854281,11.722583703003949 A 173.10139708916694 173.10139708916694 0 0 0 109.76804997316906,7.035807486870733 L 109.06288137527667,4.119862142981984 L 116.68945054189155,5.876404982436612 L 110.70827477035891,10.923734612055732 L 110.00310617246653,8.007789268166983 A 174.10139708916694 174.10139708916694 0 0 1 76.63818660360901,12.721640807174197"/><text text-anchor="middle" pointer-events="none" font-size="8px" fill="#000000" x="66.95093321602387" y="15.372750453666356" font-family="sans-serif">trek</text></g><g class="relationship" transform="translate(151.8118777358316 18.02667492159908) rotate(378.11845437246893)"><path class="outline" fill="#A5ABB6" stroke="none" d="M 25 0.5 L 54.958542954175726 0.5 L 54.958542954175726 -0.5 L 25 -0.5 Z M 76.97026170417573 0.5 L 106.92880465835145 0.5 L 106.92880465835145 3.5 L 113.92880465835145 0 L 106.92880465835145 -3.5 L 106.92880465835145 -0.5 L 76.97026170417573 -0.5 Z"/><text text-anchor="middle" pointer-events="none" font-size="8px" fill="#000000" x="65.96440232917573" y="3" font-family="sans-serif">road</text></g><g class="relationship" transform="translate(151.8118777358316 18.02667492159908) rotate(378.11845437246893)"><path class="outline" fill="#A5ABB6" stroke="none" d="M 21.40063509461097,12.933012701892217 L 21.90063509461097,12.06698729810778 A 92.25555985608077 92.25555985608077 0 0 0 56.21849293683962,23.66785370003342 L 56.09047981650047,24.65962617445537 A 93.25555985608077 93.25555985608077 0 0 1 21.40063509461097,12.933012701892217 Z M 75.48981602157949,25.127915136666346 L 75.40980576792337,24.13112109609935 A 92.25555985608077 92.25555985608077 0 0 0 110.24744251779178,14.199629071284662 L 108.87454875742648,11.532202835612903 L 116.7002526944201,11.440781336377572 L 112.07796753161219,17.756197385513673 L 110.70507377124689,15.088771149841914 A 93.25555985608077 93.25555985608077 0 0 1 75.48981602157949,25.127915136666346"/><text text-anchor="middle" pointer-events="none" font-size="8px" fill="#000000" x="65.79000054948915" y="27.8998755858359" font-family="sans-serif">trek</text></g><g class="relationship" transform="translate(283.8519832912919 61.23111090566532) rotate(181.13104420928516)"><path class="outline" fill="#A5ABB6" stroke="none" d="M 25 0.5 L 29.85177138236515 0.5 L 29.85177138236515 -0.5 L 25 -0.5 Z M 51.86349013236515 0.5 L 56.7152615147303 0.5 L 56.7152615147303 3.5 L 63.7152615147303 0 L 56.7152615147303 -3.5 L 56.7152615147303 -0.5 L 51.86349013236515 -0.5 Z"/><text text-anchor="middle" pointer-events="none" font-size="8px" fill="#000000" x="40.85763075736515" y="3" transform="rotate(180 40.85763075736515 0)" font-family="sans-serif">road</text></g><g class="relationship" transform="translate(283.8519832912919 61.23111090566532) rotate(181.13104420928516)"><path class="outline" fill="#A5ABB6" stroke="none" d="M 21.40063509461097,-12.933012701892217 L 21.90063509461097,-12.06698729810778 A 40.4164562544569 40.4164562544569 0 0 1 31.20403214377531,-15.98284528399163 L 30.93422048563763,-16.94575840007895 A 41.4164562544569 41.4164562544569 0 0 0 21.40063509461097,-12.933012701892217 Z M 50.311620698802514,-17.661339040550843 L 50.11356518612015,-16.681148235709188 A 40.4164562544569 40.4164562544569 0 0 1 59.68044286830286,-13.462143446311622 L 58.376153877513936,-10.760508713690127 L 66.2016387428845,-10.869074923241048 L 61.41949485602142,-17.064323089806944 L 60.1152058652325,-14.362688357185451 A 41.4164562544569 41.4164562544569 0 0 0 50.311620698802514,-17.661339040550843"/><text text-anchor="middle" pointer-events="none" font-size="8px" fill="#000000" x="40.598904207303754" y="-14.95389485305828" transform="rotate(180 40.598904207303754 -17.95389485305828)" font-family="sans-serif">trek</text></g><g class="relationship" transform="translate(26.051540650511726 -45.70898502043894) rotate(358.48850728209993)"><path class="outline" fill="#A5ABB6" stroke="none" d="M 21.40063509461097,12.933012701892217 L 21.90063509461097,12.06698729810778 A 35.410016251095406 35.410016251095406 0 0 0 28.868078499173215,15.143775192829672 L 28.564843260735465,16.096690923715464 A 36.410016251095406 36.410016251095406 0 0 1 21.40063509461097,12.933012701892217 Z M 47.91940181123956,16.84915469229631 L 47.69106468186982,15.87557256666377 A 35.410016251095406 35.410016251095406 0 0 0 54.87635424562934,13.349012606992575 L 53.58259225603989,10.642320915223166 L 61.4075951913562,10.781349913245425 L 56.601370231748604,16.95793486268512 L 55.307608242159155,14.251243170915712 A 36.410016251095406 36.410016251095406 0 0 1 47.91940181123956,16.84915469229631"/><text text-anchor="middle" pointer-events="none" font-size="8px" fill="#000000" x="38.210592629748284" y="20.28392187783487" font-family="sans-serif">trek</text></g><g class="relationship" transform="translate(109.98568523684924 -47.92372557555508) rotate(411.5864970777758)"><path class="outline" fill="#A5ABB6" stroke="none" d="M 25 0.5 L 55.368867375527614 0.5 L 55.368867375527614 -0.5 L 25 -0.5 Z M 74.70480487552761 0.5 L 105.07367225105523 0.5 L 105.07367225105523 3.5 L 112.07367225105523 0 L 105.07367225105523 -3.5 L 105.07367225105523 -0.5 L 74.70480487552761 -0.5 Z"/><text text-anchor="middle" pointer-events="none" font-size="8px" fill="#000000" x="65.03683612552761" y="3" font-family="sans-serif">trek</text></g><g class="relationship" transform="translate(26.051540650511726 -45.70898502043894) rotate(358.48850728209993)"><path class="outline" fill="#A5ABB6" stroke="none" d="M 25 0.5 L 27.475820269717303 0.5 L 27.475820269717303 -0.5 L 25 -0.5 Z M 49.4875390197173 0.5 L 51.96335928943461 0.5 L 51.96335928943461 3.5 L 58.96335928943461 0 L 51.96335928943461 -3.5 L 51.96335928943461 -0.5 L 49.4875390197173 -0.5 Z"/><text text-anchor="middle" pointer-events="none" font-size="8px" fill="#000000" x="38.4816796447173" y="3" font-family="sans-serif">road</text></g><g class="relationship" transform="translate(26.051540650511726 -45.70898502043894) rotate(358.48850728209993)"><path class="outline" fill="#A5ABB6" stroke="none" d="M 21.40063509461097,-12.933012701892217 L 21.90063509461097,-12.06698729810778 A 35.410016251095406 35.410016251095406 0 0 1 23.207587362990733,-12.785293419576469 L 22.74449647534787,-13.671604217086092 A 36.410016251095406 36.410016251095406 0 0 0 21.40063509461097,-12.933012701892217 Z M 53.910460152497095,-14.883270110615385 L 53.517578786180536,-13.963680945824258 A 35.410016251095406 35.410016251095406 0 0 1 54.87635424562934,-13.349012606992575 L 53.58259225603989,-10.642320915223166 L 61.4075951913562,-10.781349913245425 L 56.601370231748604,-16.95793486268512 L 55.307608242159155,-14.251243170915712 A 36.410016251095406 36.410016251095406 0 0 0 53.910460152497095,-14.883270110615385"/><text text-anchor="middle" pointer-events="none" font-size="8px" fill="#000000" x="38.210592629748284" y="-14.28392187783487" font-family="sans-serif">Publi…</text></g><g class="relationship" transform="translate(109.98568523684924 -47.92372557555508) rotate(493.87162051003213)"><path class="outline" fill="#A5ABB6" stroke="none" d="M 24.018736134675446,-6.953439040707552 L 24.277555179777966,-5.987513214418485 A 178.207701562606 178.207701562606 0 0 1 45.171310136079825,-10.264796822288105 L 45.029734929336115,-11.25472432510611 A 179.207701562606 179.207701562606 0 0 0 24.018736134675446,-6.953439040707552 Z M 91.4900716466029,-11.814603817677096 L 91.37239272357343,-10.821552121603503 A 178.207701562606 178.207701562606 0 0 1 112.36315374583212,-7.0490061719080845 L 111.65675243349102,-4.1333592135259885 L 119.28406353411386,-5.886677602842527 L 113.30502216228692,-10.93653544975088 L 112.59862084994582,-8.020888491368783 A 179.207701562606 179.207701562606 0 0 0 91.4900716466029,-11.814603817677096"/><text text-anchor="middle" pointer-events="none" font-size="8px" fill="#000000" x="68.24770611565891" y="-9.546818901258149" transform="rotate(180 68.24770611565891 -12.546818901258149)" font-family="sans-serif">twowheeler</text></g><g class="relationship" transform="translate(10.477529404953067 55.58311178342026) rotate(426.93063940338595)"><path class="outline" fill="#A5ABB6" stroke="none" d="M 24.018736134675446,-6.953439040707552 L 24.277555179777966,-5.987513214418485 A 115.91602165338743 115.91602165338743 0 0 1 29.5707670850168,-7.273323566654767 L 29.357612235680648,-8.250341995449475 A 116.91602165338743 116.91602165338743 0 0 0 24.018736134675446,-6.953439040707552 Z M 75.70751304095218,-8.956727556486499 L 75.52423034349357,-7.973667307665352 A 115.91602165338743 115.91602165338743 0 0 1 80.85416707524959,-6.849756736864426 L 80.16637592748597,-3.92966370117909 L 87.78234934980931,-5.731592898030194 L 81.77122193893442,-10.743214117778207 L 81.0834307911708,-7.823121082092871 A 116.91602165338743 116.91602165338743 0 0 0 75.70751304095218,-8.956727556486499"/><text text-anchor="middle" pointer-events="none" font-size="8px" fill="#000000" x="52.50482222058644" y="-7.423738473497707" font-family="sans-serif">twowheeler</text></g><g class="relationship" transform="translate(54.40982286067881 158.73374795120066) rotate(373.43274341935387)"><path class="outline" fill="#A5ABB6" stroke="none" d="M 24.018736134675446,6.953439040707552 L 24.277555179777966,5.987513214418485 A 114.1681183294829 114.1681183294829 0 0 0 29.139128855271224,7.176596648560235 L 28.92289239580319,8.152937671767162 A 115.1681183294829 115.1681183294829 0 0 1 24.018736134675446,6.953439040707552 Z M 75.26625851815209,8.864471250188245 L 75.08009744960142,7.881952010398976 A 114.1681183294829 114.1681183294829 0 0 0 79.97588423958713,6.842678358947977 L 79.2887542577172,3.922429672959844 L 86.90431950387111,5.726083182249479 L 80.89205754874705,10.736343273598822 L 80.20492756687712,7.816094587610688 A 115.1681183294829 115.1681183294829 0 0 1 75.26625851815209,8.864471250188245"/><text text-anchor="middle" pointer-events="none" font-size="8px" fill="#000000" x="52.06608731564135" y="13.364184517200158" font-family="sans-serif">twowheeler</text></g><g class="relationship" transform="translate(109.98568523684924 -47.92372557555508) rotate(493.87162051003213)"><path class="outline" fill="#A5ABB6" stroke="none" d="M 24.018736134675446,6.953439040707552 L 24.277555179777966,5.987513214418485 A 178.207701562606 178.207701562606 0 0 0 58.62135523812793,11.670039336008983 L 58.555254014742474,12.667852258488438 A 179.207701562606 179.207701562606 0 0 1 24.018736134675446,6.953439040707552 Z M 77.93442691326003,12.901384821002893 L 77.89239007823873,11.902268759425766 A 178.207701562606 178.207701562606 0 0 0 112.36315374583212,7.0490061719080845 L 111.65675243349102,4.1333592135259885 L 119.28406353411386,5.886677602842527 L 113.30502216228692,10.93653544975088 L 112.59862084994582,8.020888491368783 A 179.207701562606 179.207701562606 0 0 1 77.93442691326003,12.901384821002893"/><text text-anchor="middle" pointer-events="none" font-size="8px" fill="#000000" x="68.24770611565893" y="15.546818901258149" transform="rotate(180 68.24770611565893 12.546818901258149)" font-family="sans-serif">trek</text></g><g class="relationship" transform="translate(10.477529404953067 55.58311178342026) rotate(426.93063940338595)"><path class="outline" fill="#A5ABB6" stroke="none" d="M 24.018736134675446,6.953439040707552 L 24.277555179777966,5.987513214418485 A 115.91602165338743 115.91602165338743 0 0 0 42.9042616259382,9.377826089689236 L 42.80613396913969,10.37299992524322 A 116.91602165338743 116.91602165338743 0 0 1 24.018736134675446,6.953439040707552 Z M 62.20055234380985,10.668576331374808 L 62.13279667597586,9.670874387166847 A 115.91602165338743 115.91602165338743 0 0 0 80.85416707524959,6.849756736864426 L 80.16637592748597,3.92966370117909 L 87.78234934980931,5.731592898030194 L 81.77122193893442,10.743214117778207 L 81.0834307911708,7.823121082092871 A 116.91602165338743 116.91602165338743 0 0 1 62.20055234380985,10.668576331374808"/><text text-anchor="middle" pointer-events="none" font-size="8px" fill="#000000" x="52.504822220586476" y="13.423738473497707" font-family="sans-serif">trek</text></g><g class="relationship" transform="translate(54.40982286067881 158.73374795120066) rotate(373.43274341935387)"><path class="outline" fill="#A5ABB6" stroke="none" d="M 24.018736134675446,-6.953439040707552 L 24.277555179777966,-5.987513214418485 A 114.1681183294829 114.1681183294829 0 0 1 42.46670990515577,-9.311145227036917 L 42.36720989755271,-10.306182788381705 A 115.1681183294829 115.1681183294829 0 0 0 24.018736134675446,-6.953439040707552 Z M 61.76217381139303,-10.603963662574785 L 61.693268150872264,-9.606340482236547 A 114.1681183294829 114.1681183294829 0 0 1 79.97588423958713,-6.842678358947977 L 79.2887542577172,-3.922429672959844 L 86.90431950387111,-5.726083182249479 L 80.89205754874705,-10.736343273598822 L 80.20492756687712,-7.816094587610688 A 115.1681183294829 115.1681183294829 0 0 0 61.76217381139303,-10.603963662574785"/><text text-anchor="middle" pointer-events="none" font-size="8px" fill="#000000" x="52.066087315641326" y="-7.364184517200158" font-family="sans-serif">trek</text></g><g class="relationship" transform="translate(109.98568523684924 -47.92372557555508) rotate(417.61685181548944)"><path class="outline" fill="#A5ABB6" stroke="none" d="M 25 0.5 L 25.87971269428347 0.5 L 25.87971269428347 -0.5 L 25 -0.5 Z M 45.21565019428347 0.5 L 46.09536288856694 0.5 L 46.09536288856694 3.5 L 53.09536288856694 0 L 46.09536288856694 -3.5 L 46.09536288856694 -0.5 L 45.21565019428347 -0.5 Z"/><text text-anchor="middle" pointer-events="none" font-size="8px" fill="#000000" x="35.54768144428347" y="3" font-family="sans-serif">trek</text></g><g class="relationship" transform="translate(10.477529404953067 55.58311178342026) rotate(475.85635827414694)"><path class="outline" fill="#A5ABB6" stroke="none" d="M 24.018736134675446,-6.953439040707552 L 24.277555179777966,-5.987513214418485 A 144.24016634413456 144.24016634413456 0 0 1 36.62151144188422,-8.721417862228321 L 36.44827158443083,-9.706297525836789 A 145.24016634413456 145.24016634413456 0 0 0 24.018736134675446,-6.953439040707552 Z M 82.86937833381172,-10.33799282491998 L 82.72300201401984,-9.34876384586397 A 144.24016634413456 144.24016634413456 0 0 1 95.13677932338193,-6.951760771674213 L 94.43946061789052,-4.03392825026868 L 102.06127499091008,-5.810989212428489 L 96.06653759737048,-10.842204133548256 L 95.36921889187907,-7.924371612142723 A 145.24016634413456 145.24016634413456 0 0 0 82.86937833381172,-10.33799282491998"/><text text-anchor="middle" pointer-events="none" font-size="8px" fill="#000000" x="59.64022518493555" y="-8.388978368918202" transform="rotate(180 59.64022518493555 -11.388978368918202)" font-family="sans-serif">twowheeler</text></g><g class="relationship" transform="translate(-44.63736447827648 169.30813036681462) rotate(353.9061245706346)"><path class="outline" fill="#A5ABB6" stroke="none" d="M 21.40063509461097,12.933012701892217 L 21.90063509461097,12.06698729810778 A 51.80316418911873 51.80316418911873 0 0 0 24.00488830645189,13.217769940381402 L 23.545508474057073,14.106009868322559 A 52.80316418911873 52.80316418911873 0 0 1 21.40063509461097,12.933012701892217 Z M 68.90226776925408,15.608283971917842 L 68.5026695462288,14.691593587897678 A 51.80316418911873 51.80316418911873 0 0 0 70.67845826613734,13.682571429756567 L 69.3536603642108,10.990934284996708 L 77.17974458756478,11.039982516054595 L 72.44485546870608,17.271420956103047 L 71.12005756677954,14.579783811343187 A 52.80316418911873 52.80316418911873 0 0 1 68.90226776925408,15.608283971917842"/><text text-anchor="middle" pointer-events="none" font-size="8px" fill="#000000" x="46.070818665277436" y="22.47863009138333" font-family="sans-serif">twowheeler</text></g><g class="relationship" transform="translate(10.477529404953067 55.58311178342026) rotate(475.85635827414694)"><path class="outline" fill="#A5ABB6" stroke="none" d="M 24.018736134675446,6.953439040707552 L 24.277555179777966,5.987513214418485 A 144.24016634413456 144.24016634413456 0 0 0 50.024888018908754,10.436404823607518 L 49.9445721847475,11.433174288821505 A 145.24016634413456 145.24016634413456 0 0 1 24.018736134675446,6.953439040707552 Z M 69.33108544115319,11.696984657579009 L 69.27792226778928,10.698398819006343 A 144.24016634413456 144.24016634413456 0 0 0 95.13677932338193,6.951760771674213 L 94.43946061789052,4.03392825026868 L 102.06127499091008,5.810989212428489 L 96.06653759737048,10.842204133548256 L 95.36921889187907,7.924371612142723 A 145.24016634413456 145.24016634413456 0 0 1 69.33108544115319,11.696984657579009"/><text text-anchor="middle" pointer-events="none" font-size="8px" fill="#000000" x="59.640225184935595" y="14.388978368918202" transform="rotate(180 59.640225184935595 11.388978368918202)" font-family="sans-serif">trek</text></g><g class="relationship" transform="translate(-44.63736447827648 169.30813036681462) rotate(353.9061245706346)"><path class="outline" fill="#A5ABB6" stroke="none" d="M 25 0.5 L 35.29916768861516 0.5 L 35.29916768861516 -0.5 L 25 -0.5 Z M 57.31088643861516 0.5 L 67.61005412723031 0.5 L 67.61005412723031 3.5 L 74.61005412723031 0 L 67.61005412723031 -3.5 L 67.61005412723031 -0.5 L 57.31088643861516 -0.5 Z"/><text text-anchor="middle" pointer-events="none" font-size="8px" fill="#000000" x="46.30502706361516" y="3" font-family="sans-serif">road</text></g><g class="relationship" transform="translate(-44.63736447827648 169.30813036681462) rotate(353.9061245706346)"><path class="outline" fill="#A5ABB6" stroke="none" d="M 21.40063509461097,-12.933012701892217 L 21.90063509461097,-12.06698729810778 A 51.80316418911873 51.80316418911873 0 0 1 36.60069064069869,-17.781731126061125 L 36.38445816293771,-18.758073031113526 A 52.80316418911873 52.80316418911873 0 0 0 21.40063509461097,-12.933012701892217 Z M 55.78362944938289,-19.40059849165545 L 55.632475396727514,-18.41208827301032 A 51.80316418911873 51.80316418911873 0 0 1 70.67845826613734,-13.682571429756567 L 69.3536603642108,-10.990934284996708 L 77.17974458756478,-11.039982516054595 L 72.44485546870608,-17.271420956103047 L 71.12005756677954,-14.579783811343187 A 52.80316418911873 52.80316418911873 0 0 0 55.78362944938289,-19.40059849165545"/><text text-anchor="middle" pointer-events="none" font-size="8px" fill="#000000" x="46.07081866527743" y="-16.47863009138333" font-family="sans-serif">trek</text></g><g class="relationship" transform="translate(-44.63736447827648 169.30813036681462) rotate(398.7306954790903)"><path class="outline" fill="#A5ABB6" stroke="none" d="M 25 0.5 L 50.488092599587816 0.5 L 50.488092599587816 -0.5 L 25 -0.5 Z M 69.82403009958782 0.5 L 95.31212269917563 0.5 L 95.31212269917563 3.5 L 102.31212269917563 0 L 95.31212269917563 -3.5 L 95.31212269917563 -0.5 L 69.82403009958782 -0.5 Z"/><text text-anchor="middle" pointer-events="none" font-size="8px" fill="#000000" x="60.156061349587816" y="3" font-family="sans-serif">trek</text></g><g class="relationship" transform="translate(54.67822784364301 248.9623186303092) rotate(329.18078733744943)"><path class="outline" fill="#A5ABB6" stroke="none" d="M 25 0.5 L 49.66951127083137 0.5 L 49.66951127083137 -0.5 L 25 -0.5 Z M 69.00544877083138 0.5 L 93.67496004166274 0.5 L 93.67496004166274 3.5 L 100.67496004166274 0 L 93.67496004166274 -3.5 L 93.67496004166274 -0.5 L 69.00544877083138 -0.5 Z"/><text text-anchor="middle" pointer-events="none" font-size="8px" fill="#000000" x="59.33748002083137" y="3" font-family="sans-serif">trek</text></g></g><g class="layer nodes"><g class="node" transform="translate(26.051540650511726,-45.70898502043894)"><circle class="outline" cx="0" cy="0" r="25" fill="#D9C8AE" stroke="#c0a378" stroke-width="2px"/><text text-anchor="middle" pointer-events="none" font-family="sans-serif" dy="1.5625" font-size="25" fill="#2A2C34"/><text text-anchor="middle" pointer-events="none" x="0" y="5" font-size="10px" fill="#2A2C34" font-family="sans-serif"> Darjeeling</text></g><g class="node" transform="translate(162.60639406149002,184.57515750073063)"><circle class="outline" cx="0" cy="0" r="25" fill="#8DCC93" stroke="#5db665" stroke-width="2px"/><text text-anchor="middle" pointer-events="none" font-family="sans-serif" dy="1.5625" font-size="25" fill="#2A2C34"/><text text-anchor="middle" pointer-events="none" x="0" y="5" font-size="10px" fill="#2A2C34" font-family="sans-serif"> Sandak…</text></g><g class="node" transform="translate(151.8118777358316,18.02667492159908)"><circle class="outline" cx="0" cy="0" r="25" fill="#F16667" stroke="#eb2728" stroke-width="2px"/><text text-anchor="middle" pointer-events="none" font-family="sans-serif" dy="1.5625" font-size="25" fill="#FFFFFF"/><text text-anchor="middle" pointer-events="none" x="0" y="5" font-size="10px" fill="#FFFFFF" font-family="sans-serif"> Tumbling</text></g><g class="node" transform="translate(283.8519832912919,61.23111090566532)"><circle class="outline" cx="0" cy="0" r="25" fill="#F16667" stroke="#eb2728" stroke-width="2px"/><text text-anchor="middle" pointer-events="none" font-family="sans-serif" dy="1.5625" font-size="25" fill="#FFFFFF"/><text text-anchor="middle" pointer-events="none" x="0" y="5" font-size="10px" fill="#FFFFFF" font-family="sans-serif"> Gairibus</text></g><g class="node" transform="translate(195.15400672683884,59.479945865264305)"><circle class="outline" cx="0" cy="0" r="25" fill="#F16667" stroke="#eb2728" stroke-width="2px"/><text text-anchor="middle" pointer-events="none" font-family="sans-serif" dy="1.5625" font-size="25" fill="#FFFFFF"/><text text-anchor="middle" pointer-events="none" x="0" y="5" font-size="10px" fill="#FFFFFF" font-family="sans-serif"> BhikeBh…</text></g><g class="node" transform="translate(109.98568523684924,-47.92372557555508)"><circle class="outline" cx="0" cy="0" r="25" fill="#D9C8AE" stroke="#c0a378" stroke-width="2px"/><text text-anchor="middle" pointer-events="none" font-family="sans-serif" dy="1.5625" font-size="25" fill="#2A2C34"/><text text-anchor="middle" pointer-events="none" x="0" y="5" font-size="10px" fill="#2A2C34" font-family="sans-serif"> Rimbik</text></g><g class="node" transform="translate(10.477529404953067,55.58311178342026)"><circle class="outline" cx="0" cy="0" r="25" fill="#F16667" stroke="#eb2728" stroke-width="2px"/><text text-anchor="middle" pointer-events="none" font-family="sans-serif" dy="1.5625" font-size="25" fill="#FFFFFF"/><text text-anchor="middle" pointer-events="none" x="0" y="5" font-size="10px" fill="#FFFFFF" font-family="sans-serif"> Sirikhola</text></g><g class="node" transform="translate(54.40982286067881,158.73374795120066)"><circle class="outline" cx="0" cy="0" r="25" fill="#F16667" stroke="#eb2728" stroke-width="2px"/><text text-anchor="middle" pointer-events="none" font-family="sans-serif" dy="1.5625" font-size="25" fill="#FFFFFF"/><text text-anchor="middle" pointer-events="none" x="0" y="5" font-size="10px" fill="#FFFFFF" font-family="sans-serif"> Gurdum</text></g><g class="node" transform="translate(-44.63736447827648,169.30813036681462)"><circle class="outline" cx="0" cy="0" r="25" fill="#F16667" stroke="#eb2728" stroke-width="2px"/><text text-anchor="middle" pointer-events="none" font-family="sans-serif" dy="1.5625" font-size="25" fill="#FFFFFF"/><text text-anchor="middle" pointer-events="none" x="0" y="5" font-size="10px" fill="#FFFFFF" font-family="sans-serif"> Rammam</text></g><g class="node" transform="translate(54.67822784364301,248.9623186303092)"><circle class="outline" cx="0" cy="0" r="25" fill="#8DCC93" stroke="#5db665" stroke-width="2px"/><text text-anchor="middle" pointer-events="none" font-family="sans-serif" dy="1.5625" font-size="25" fill="#2A2C34"/><text text-anchor="middle" pointer-events="none" x="0" y="5" font-size="10px" fill="#2A2C34" font-family="sans-serif"> Sabargr…</text></g></g></svg>