<svg xmlns="http://www.w3.org/2000/svg" width="448.1889953613281" height="188.21078491210938" viewBox="-235.1241455078125 5.6139678955078125 448.1889953613281 188.21078491210938"><title>Neo4j Graph Visualization</title><desc>Created using Neo4j (http://www.neo4j.com/)</desc><g class="layer relationships"><g class="relationship" transform="translate(-206.124151165038 164.82474679803124) rotate(347.63276770108655)"><path class="outline" fill="#A5ABB6" stroke="none" d="M 24.018736134675446,-6.953439040707552 L 24.277555179777966,-5.987513214418485 A 315.87527205536924 315.87527205536924 0 0 1 63.29633049107667,-13.84642268365559 L 63.161037339778396,-14.837228296887474 A 316.87527205536924 316.87527205536924 0 0 0 24.018736134675446,-6.953439040707552 Z M 143.7428544296924,-15.498754672938617 L 143.62384620692876,-14.505861404296581 A 315.87527205536924 315.87527205536924 0 0 1 182.76638740081117,-7.288607513480678 L 182.03760959458853,-4.378472996116005 L 189.67816424236582,-6.073148385188636 L 183.73809114244133,-11.168786869966908 L 183.0093133362187,-8.258652352602237 A 316.87527205536924 316.87527205536924 0 0 0 143.7428544296924,-15.498754672938617"/><text text-anchor="middle" pointer-events="none" font-size="8px" fill="#000000" x="103.4349356463629" y="-14.240041771660742" font-family="sans-serif">HAS_CONNECTION</text></g><g class="relationship" transform="translate(2.840889301439441 119.00607224543495) rotate(347.12711219177345)"><path class="outline" fill="#A5ABB6" stroke="none" d="M 12.066987298107785,21.900635094610966 L 12.933012701892222,21.400635094610966 A 91.15423209869567 91.15423209869567 0 0 0 50.42129439834644,57.00660325914306 L 49.966531103115166,57.89721560203441 A 92.15423209869567 92.15423209869567 0 0 1 12.066987298107785,21.900635094610966 Z M 128.448832328022,60.40927128638947 L 128.0519548528017,59.49139968879928 A 91.15423209869567 91.15423209869567 0 0 0 167.74051469328137,26.35570215162605 L 165.2436820311627,24.692624685788253 L 172.037167557256,20.80693885098882 L 171.06962490943957,28.573138772743114 L 168.5727922473209,26.910061306905316 A 92.15423209869567 92.15423209869567 0 0 1 128.448832328022,60.40927128638947"/><text text-anchor="middle" pointer-events="none" font-size="8px" fill="#000000" x="88.94273311503196" y="70.43083697286484" font-family="sans-serif">HAS_CONNECTION</text></g><g class="relationship" transform="translate(2.840889301439441 119.00607224543495) rotate(347.12711219177345)"><path class="outline" fill="#A5ABB6" stroke="none" d="M 21.40063509461097,12.933012701892217 L 21.90063509461097,12.06698729810778 A 139.94851653442916 139.94851653442916 0 0 0 49.79074180770926,24.33903034515636 L 49.49003014176057,25.29274544620192 A 140.94851653442916 140.94851653442916 0 0 1 21.40063509461097,12.933012701892217 Z M 129.3312480296554,26.74850030172361 L 129.0655030925054,25.784456926984106 A 139.94851653442916 139.94851653442916 0 0 0 157.38443866227914,14.537280338540924 L 155.9801462784223,11.886249802948832 L 163.8042253093035,11.702436532140327 L 159.25682850742157,18.07198771933038 L 157.85253612356473,15.420957183738288 A 140.94851653442916 140.94851653442916 0 0 1 129.3312480296554,26.74850030172361"/><text text-anchor="middle" pointer-events="none" font-size="8px" fill="#000000" x="89.31450365376045" y="34.29319327945167" font-family="sans-serif">HAS_CONNECTION</text></g><g class="relationship" transform="translate(2.840889301439441 119.00607224543495) rotate(347.12711219177345)"><path class="outline" fill="#A5ABB6" stroke="none" d="M 25 0.5 L 49.110182594618834 0.5 L 49.110182594618834 -0.5 L 25 -0.5 Z M 129.78596384461883 0.5 L 153.89614643923767 0.5 L 153.89614643923767 3.5 L 160.89614643923767 0 L 153.89614643923767 -3.5 L 153.89614643923767 -0.5 L 129.78596384461883 -0.5 Z"/><text text-anchor="middle" pointer-events="none" font-size="8px" fill="#000000" x="89.44807321961883" y="3" font-family="sans-serif">HAS_CONNECTION</text></g><g class="relationship" transform="translate(2.840889301439441 119.00607224543495) rotate(527.6327677010866)"><path class="outline" fill="#A5ABB6" stroke="none" d="M 24.018736134675446,-6.953439040707552 L 24.277555179777966,-5.987513214418485 A 315.87527205536924 315.87527205536924 0 0 1 63.29633049107667,-13.84642268365559 L 63.161037339778396,-14.837228296887474 A 316.87527205536924 316.87527205536924 0 0 0 24.018736134675446,-6.953439040707552 Z M 143.7428544296924,-15.498754672938617 L 143.62384620692876,-14.505861404296581 A 315.87527205536924 315.87527205536924 0 0 1 182.76638740081117,-7.288607513480678 L 182.03760959458853,-4.378472996116005 L 189.67816424236582,-6.073148385188636 L 183.73809114244133,-11.168786869966908 L 183.0093133362187,-8.258652352602237 A 316.87527205536924 316.87527205536924 0 0 0 143.7428544296924,-15.498754672938617"/><text text-anchor="middle" pointer-events="none" font-size="8px" fill="#000000" x="103.4349356463629" y="-14.240041771660742" transform="rotate(180 103.4349356463629 -17.240041771660742)" font-family="sans-serif">HAS_CONNECTION</text></g><g class="relationship" transform="translate(2.840889301439441 119.00607224543495) rotate(347.12711219177345)"><path class="outline" fill="#A5ABB6" stroke="none" d="M 21.40063509461097,-12.933012701892217 L 21.90063509461097,-12.06698729810778 A 139.94851653442916 139.94851653442916 0 0 1 49.79074180770926,-24.33903034515636 L 49.49003014176057,-25.29274544620192 A 140.94851653442916 140.94851653442916 0 0 0 21.40063509461097,-12.933012701892217 Z M 129.33124802965534,-26.748500301723638 L 129.06550309250534,-25.784456926984134 A 139.94851653442916 139.94851653442916 0 0 1 157.38443866227914,-14.537280338540924 L 155.9801462784223,-11.886249802948832 L 163.8042253093035,-11.702436532140327 L 159.25682850742157,-18.07198771933038 L 157.85253612356473,-15.420957183738288 A 140.94851653442916 140.94851653442916 0 0 0 129.33124802965534,-26.748500301723638"/><text text-anchor="middle" pointer-events="none" font-size="8px" fill="#000000" x="89.31450365376043" y="-28.29319327945167" font-family="sans-serif">HAS_CONNECTION</text></g><g class="relationship" transform="translate(2.840889301439441 119.00607224543495) rotate(347.12711219177345)"><path class="outline" fill="#A5ABB6" stroke="none" d="M 12.066987298107785,-21.900635094610966 L 12.933012701892222,-21.400635094610966 A 91.15423209869567 91.15423209869567 0 0 1 50.42129439834642,-57.00660325914306 L 49.966531103115145,-57.89721560203439 A 92.15423209869567 92.15423209869567 0 0 0 12.066987298107785,-21.900635094610966 Z M 128.44883232802198,-60.40927128638948 L 128.05195485280166,-59.491399688799305 A 91.15423209869567 91.15423209869567 0 0 1 167.74051469328137,-26.35570215162605 L 165.2436820311627,-24.692624685788253 L 172.037167557256,-20.80693885098882 L 171.06962490943957,-28.573138772743114 L 168.5727922473209,-26.910061306905316 A 92.15423209869567 92.15423209869567 0 0 0 128.44883232802198,-60.40927128638948"/><text text-anchor="middle" pointer-events="none" font-size="8px" fill="#000000" x="88.94273311503193" y="-64.43083697286484" font-family="sans-serif">HAS_CONNECTION</text></g></g><g class="layer nodes"><g class="node" transform="translate(-206.124151165038,164.82474679803124)"><circle class="outline" cx="0" cy="0" r="25" fill="#4C8EDA" stroke="#2870c2" stroke-width="2px"/><text text-anchor="middle" pointer-events="none" font-family="sans-serif" dy="1.5625" font-size="25" fill="#FFFFFF"/><text text-anchor="middle" pointer-events="none" x="0" y="5" font-size="10px" fill="#FFFFFF" font-family="sans-serif"> MSN</text></g><g class="node" transform="translate(184.06485702053055,77.59048598726012)"><circle class="outline" cx="0" cy="0" r="25" fill="#4C8EDA" stroke="#2870c2" stroke-width="2px"/><text text-anchor="middle" pointer-events="none" font-family="sans-serif" dy="1.5625" font-size="25" fill="#FFFFFF"/><text text-anchor="middle" pointer-events="none" x="0" y="5" font-size="10px" fill="#FFFFFF" font-family="sans-serif"> GRR</text></g><g class="node" transform="translate(2.840889301439441,119.00607224543495)"><circle class="outline" cx="0" cy="0" r="25" fill="#4C8EDA" stroke="#2870c2" stroke-width="2px"/><text text-anchor="middle" pointer-events="none" font-family="sans-serif" dy="1.5625" font-size="25" fill="#FFFFFF"/><text text-anchor="middle" pointer-events="none" x="0" y="5" font-size="10px" fill="#FFFFFF" font-family="sans-serif"> ORD</text></g></g></svg>